<?xml version="1.0" encoding="UTF-8" standalone="no"?>
<!-- Created with Inkscape (http://www.inkscape.org/) -->

<svg
   xmlns:dc="http://purl.org/dc/elements/1.1/"
   xmlns:cc="http://creativecommons.org/ns#"
   xmlns:rdf="http://www.w3.org/1999/02/22-rdf-syntax-ns#"
   xmlns:svg="http://www.w3.org/2000/svg"
   xmlns="http://www.w3.org/2000/svg"
   xmlns:sodipodi="http://sodipodi.sourceforge.net/DTD/sodipodi-0.dtd"
   xmlns:inkscape="http://www.inkscape.org/namespaces/inkscape"
   width="210mm"
   height="297mm"
   viewBox="0 0 210 297"
   version="1.1"
   id="svg8"
   inkscape:version="0.92.4 (5da689c313, 2019-01-14)"
   sodipodi:docname="calligraphy font.svg">
  <defs
     id="defs2" />
  <sodipodi:namedview
     id="base"
     pagecolor="#ffffff"
     bordercolor="#666666"
     borderopacity="1.0"
     inkscape:pageopacity="0.0"
     inkscape:pageshadow="2"
     inkscape:zoom="3.959798"
     inkscape:cx="152.04821"
     inkscape:cy="1040.6579"
     inkscape:document-units="mm"
     inkscape:current-layer="layer1"
     showgrid="false"
     inkscape:window-width="1858"
     inkscape:window-height="1057"
     inkscape:window-x="-8"
     inkscape:window-y="-8"
     inkscape:window-maximized="1" />
  <metadata
     id="metadata5">
    <rdf:RDF>
      <cc:Work
         rdf:about="">
        <dc:format>image/svg+xml</dc:format>
        <dc:type
           rdf:resource="http://purl.org/dc/dcmitype/StillImage" />
        <dc:title></dc:title>
      </cc:Work>
    </rdf:RDF>
  </metadata>
  <g
     inkscape:label="Layer 1"
     inkscape:groupmode="layer"
     id="layer1">
    <path
       style="fill:#000000;fill-opacity:1;stroke:none;stroke-width:0.30637348px;stroke-linecap:butt;stroke-linejoin:miter;stroke-opacity:1"
       d="m 3.7258757,11.416674 c -0.031795,-0.188227 0.1620829,-0.198435 0.2686583,-0.08379 0.5874757,0.631943 1.4930177,0.853333 2.4732636,0.872008 3.5822514,0.06825 7.6964384,-0.681243 9.7386214,-1.562254 0.476638,-0.205625 0.642144,-0.586728 0.293889,-0.8552986 -0.62821,-0.4844702 -2.029646,-1.5235013 -2.746167,-2.2854313 l 0.132038,-0.1835724 c 1.020651,0.6275093 2.059828,1.2707698 3.457831,1.6453637 1.630873,0.4369912 2.821151,-0.1182883 3.669511,0.4276348 0.823522,0.5299401 0.922829,2.3389078 -0.907904,3.4016218 C 16.815583,14.70277 8.2892429,15.752151 5.5844455,14.73654 3.7471393,14.046659 3.9546272,12.770876 3.7258757,11.416674 Z"
       id="path815"
       inkscape:connector-curvature="0"
       sodipodi:nodetypes="sssssccsssss" />
    <path
       style="fill:#000000;fill-opacity:1;stroke:none;stroke-width:0.26458332px;stroke-linecap:butt;stroke-linejoin:miter;stroke-opacity:1"
       d="m 10.436901,4.7633689 c 0.237514,-0.6551449 1.588624,-1.0399254 2.322743,-0.9909407 1.187297,0.079223 2.406714,0.9147597 2.406714,2.1592615 0,0.636928 -0.595582,1.5855019 -1.00682,3.5109035 -0.606453,2.8393848 -2.040994,9.8003448 -2.589219,11.7466698 1.799032,-1.378558 4.420716,-2.878879 7.561133,-2.878879 3.913157,0 7.49501,3.427257 7.49501,7.275971 0,4.43386 -2.707795,7.434417 -14.293681,7.056358 -0.406215,-0.01325 -0.363424,-0.309813 -0.121689,-0.33578 8.933448,-0.959624 9.79187,-4.583433 9.79187,-7.728182 0,-2.251913 -1.027521,-5.174478 -3.417718,-5.174478 -2.839739,0 -6.562207,3.282034 -8.574857,7.08432 C 8.4968472,29.347965 6.0561772,25.430671 6.5638482,24.040874 6.9142264,23.08168 7.8805186,22.871845 8.7566138,20.884975 9.3878631,19.453384 10.001163,17.944196 10.483004,16.041054 11.785006,10.8985 12.218711,7.816951 11.935745,6.4708756 11.609175,4.9173696 10.243893,5.2957497 10.436901,4.7633689 Z"
       id="path817"
       inkscape:connector-curvature="0"
       sodipodi:nodetypes="sssscssssssssssss" />
    <path
       style="fill:#000000;fill-opacity:1;stroke:none;stroke-width:0.26458332px;stroke-linecap:butt;stroke-linejoin:miter;stroke-opacity:1"
       d="m 24.883866,8.3831321 c 3.367679,-0.095155 6.258784,1.4165576 6.799367,5.2712309 0.267055,1.904266 -0.622936,2.9226 -2.083337,3.684863 -1.350169,0.704726 -2.872572,-0.689691 -2.52537,-2.551335 0.545288,-2.923739 0.02437,-4.262424 -2.699541,-5.5256815 -0.772937,-0.3584611 -1.135684,-1.045538 -0.866432,-0.9932581 0.284078,0.055159 0.773096,0.1311969 1.375313,0.1141807 z"
       id="path819"
       inkscape:connector-curvature="0"
       sodipodi:nodetypes="sssssss" />
    <path
       style="fill:#000000;fill-opacity:1;stroke:none;stroke-width:0.26458332px;stroke-linecap:butt;stroke-linejoin:miter;stroke-opacity:1"
       d="m 40.653647,4.5783239 c 0.546412,1.2992491 1.69692,1.5712726 2.639305,1.6999094 2.169452,0.2961333 4.863315,-0.068463 6.927853,-0.4439077 1.98469,-0.360924 2.684939,-0.6658653 3.593555,-0.7264396 1.064626,-0.070975 2.660506,0.8979179 3.526645,2.4370909 0.336132,0.5973242 0.161395,1.4029292 -0.758146,1.7477872 -0.919541,0.3448581 -3.210202,-0.1580306 -4.521361,0.1792478 -1.341932,0.3451946 -3.232694,1.3816861 -4.506747,2.3473251 -0.283187,0.214635 -0.231588,0.458855 -0.0065,0.529083 1.434042,0.447414 2.92511,0.768641 3.941008,0.903041 0.900866,0.119182 1.767878,0.237677 2.250891,0.536737 0.701555,0.434371 0.983284,1.267505 0.858002,2.269765 -0.104351,0.834802 -0.644152,1.361749 -1.336349,1.311291 -2.134264,-0.155579 -4.187924,0.554256 -5.324328,0.951381 -0.642934,0.224678 -0.696688,0.670721 -0.429419,0.829412 0.267269,0.158692 2.480519,0.699552 3.501564,0.884283 1.041273,0.188391 2.320911,0.202641 2.980235,0.720077 0.69348,0.544242 0.968178,1.535955 0.477918,2.371274 -0.377358,0.642954 -1.338803,0.713553 -1.879935,0.57931 -1.36035,-0.337474 -3.54461,0.04731 -4.625489,0.199833 -0.42005,0.05927 -0.528534,-0.190177 -0.137813,-0.321559 1.428223,-0.480249 1.367632,-0.7634 1.123371,-0.805985 -1.269531,-0.221333 -3.893764,-0.917149 -5.000858,-1.358661 -0.855389,-0.341132 -1.267999,-0.879289 -1.187903,-1.577284 0.18887,-1.645913 2.857746,-1.878893 3.61971,-2.083061 1.133273,-0.303659 3.011099,-0.918203 3.695732,-1.281154 0.4117,-0.218258 0.431062,-0.513985 0.123342,-0.569411 -1.831945,-0.329968 -4.92593,-1.151597 -5.36508,-1.602864 -0.467314,-0.480205 -0.457281,-1.232568 -0.169446,-1.67359 0.396434,-0.607418 2.484225,-1.337556 3.57669,-2.437852 C 48.87488,9.5540702 48.70144,9.1924794 48.1669,9.1757744 47.632359,9.1590694 44.18474,9.9660379 42.592648,8.8544161 41.49434,8.0875615 40.351108,6.1162686 40.319972,4.722931 c -0.009,-0.4011427 0.23131,-0.3880079 0.333675,-0.1446071 z"
       id="path887"
       inkscape:connector-curvature="0"
       sodipodi:nodetypes="ssssssssssssssssssssssssssssssssss" />
    <path
       style="fill:#000000;fill-opacity:1;stroke:none;stroke-width:0.26458332px;stroke-linecap:butt;stroke-linejoin:miter;stroke-opacity:1"
       d="m 37.64337,27.051957 c -0.45697,1.435779 -0.03057,2.51905 0.907393,3.365766 1.422322,1.283955 5.849333,1.674798 8.94215,1.670844 4.875374,-0.0062 10.294126,-0.701525 11.743042,-1.110992 1.211361,-0.342335 1.725334,-1.007938 1.653648,-2.108153 -0.08369,-1.284395 -1.532241,-2.264944 -2.770176,-2.188533 -1.913504,0.118109 -5.180195,1.106599 -10.487711,1.106599 -3.573605,0 -5.857346,-0.579098 -6.554994,-1.16893 -0.572677,-0.484175 -0.639391,-1.179607 0.768431,-1.719943 0.373899,-0.143506 0.39707,-0.421754 -0.0906,-0.324262 -2.341657,0.468131 -3.772874,1.414654 -4.111183,2.477604 z"
       id="path889"
       inkscape:connector-curvature="0"
       sodipodi:nodetypes="sssssssssss" />
  </g>
  <g
     inkscape:groupmode="layer"
     id="layer2"
     inkscape:label="temp"
     sodipodi:insensitive="true"
     style="display:none">
    <path
       style="opacity:1;vector-effect:none;fill:#000000;fill-opacity:1;fill-rule:nonzero;stroke:none;stroke-width:4.93194246;stroke-linecap:butt;stroke-linejoin:miter;stroke-miterlimit:4;stroke-dasharray:none;stroke-dashoffset:0;stroke-opacity:1"
       d="m 41.042228,3.308401 c 0.177598,1.2153104 0.489244,3.0505171 1.400162,4.4769371 0.619627,0.5873493 3.72786,1.29466 6.924351,1.4296791 0.514045,0.1011016 -2.282002,2.1191948 -3.383591,3.5081168 -0.241281,0.498932 -0.271057,1.181456 0.0023,1.414673 0.523073,0.566994 2.592762,1.335503 2.756062,2.049618 -0.471158,0.644945 -3.212874,2.291562 -3.630027,1.843329 -1.177299,-0.0091 -1.884279,0.714108 -2.157557,1.105232 -0.484409,0.219825 -0.265661,2.207601 0.669837,2.5721 8.121053,2.017934 7.022456,1.174203 5.522084,1.956865 2.835897,-0.199378 4.376972,0.552264 5.003599,0.276606 0.693673,-0.174024 1.392761,-1.915491 1.236729,-2.47602 -0.375386,-1.100035 -1.844002,-1.50073 -4.270248,-1.478452 -2.346661,-0.477121 -5.488112,-0.558359 -5.351684,-1.431636 1.732309,-0.595198 5.077632,-1.325654 6.060472,-1.239796 0.780669,-0.302363 1.336401,-2.232312 0.978835,-2.891115 -1.882139,-1.303137 -2.487186,-0.330878 -5.380847,-1.641941 -0.0844,-0.108633 0.193048,-0.149062 0.215418,-0.2788 1.150292,-1.073708 4.204627,-2.432849 5.033085,-2.7227548 0.79607,-0.020511 3.556443,-0.079756 3.869891,-0.2460649 0.456705,-0.3808628 1.109421,-1.201685 0.634541,-2.6750821 0.02942,-0.3862418 -2.857096,-2.0053075 -3.124555,-1.895569 -0.516553,0.1486273 -2.952507,0.9996572 -3.405056,0.9172464 -1.674633,0.084821 -7.0769,0.06878 -7.782413,-0.3596813 C 41.919323,4.8805529 41.466066,3.3287731 41.042228,3.308401 Z"
       id="path829"
       inkscape:connector-curvature="0"
       sodipodi:nodetypes="ccccccccccccccccccccccccc" />
    <path
       style="opacity:1;vector-effect:none;fill:#000000;fill-opacity:1;fill-rule:nonzero;stroke:none;stroke-width:4.65636063;stroke-linecap:butt;stroke-linejoin:miter;stroke-miterlimit:4;stroke-dasharray:none;stroke-dashoffset:0;stroke-opacity:1"
       d="m 41.250534,27.110145 c 1.92283,0.444729 3.882936,0.436322 5.835715,0.714824 2.397012,0.168845 7.51224,-0.682575 9.914325,-0.781424 1.198446,-0.06637 2.413052,-0.314185 3.947757,0.608744 1.180624,2.098076 -0.316706,3.539422 -1.208384,3.667723 -3.191409,0.344709 -10.238946,0.899315 -13.432915,0.660811 -1.896265,-0.216231 -5.25667,-1.148713 -7.125618,-1.517277 -0.929993,-0.243869 -0.8913,-1.768857 -1.54724,-2.464775 -0.55202,-1.002365 1.964871,-1.776474 2.846708,-2.389805 0.309467,-0.229629 1.490835,-0.545968 1.367525,-0.494427 -0.240419,0.144901 -1.426921,1.728248 -0.597873,1.995606 z"
       id="path839"
       inkscape:connector-curvature="0"
       sodipodi:nodetypes="ccccccccccc" />
  </g>
</svg>
