<?xml version="1.0" encoding="UTF-8" standalone="no"?>
<!-- Created with Inkscape (http://www.inkscape.org/) -->

<svg
   xmlns:dc="http://purl.org/dc/elements/1.1/"
   xmlns:cc="http://creativecommons.org/ns#"
   xmlns:rdf="http://www.w3.org/1999/02/22-rdf-syntax-ns#"
   xmlns:svg="http://www.w3.org/2000/svg"
   xmlns="http://www.w3.org/2000/svg"
   xmlns:sodipodi="http://sodipodi.sourceforge.net/DTD/sodipodi-0.dtd"
   xmlns:inkscape="http://www.inkscape.org/namespaces/inkscape"
   width="210mm"
   height="297mm"
   viewBox="0 0 210 297"
   version="1.1"
   id="svg1373"
   inkscape:version="0.92.4 (5da689c313, 2019-01-14)"
   sodipodi:docname="Auxiliary Quielic Samples.svg">
  <defs
     id="defs1367" />
  <sodipodi:namedview
     id="base"
     pagecolor="#ffffff"
     bordercolor="#666666"
     borderopacity="1.0"
     inkscape:pageopacity="0.0"
     inkscape:pageshadow="2"
     inkscape:zoom="1.4"
     inkscape:cx="345.10334"
     inkscape:cy="856.91094"
     inkscape:document-units="mm"
     inkscape:current-layer="layer1"
     showgrid="false"
     inkscape:window-width="1858"
     inkscape:window-height="1057"
     inkscape:window-x="-8"
     inkscape:window-y="-8"
     inkscape:window-maximized="1" />
  <metadata
     id="metadata1370">
    <rdf:RDF>
      <cc:Work
         rdf:about="">
        <dc:format>image/svg+xml</dc:format>
        <dc:type
           rdf:resource="http://purl.org/dc/dcmitype/StillImage" />
        <dc:title></dc:title>
      </cc:Work>
    </rdf:RDF>
  </metadata>
  <g
     inkscape:label="Layer 1"
     inkscape:groupmode="layer"
     id="layer1">
    <path
       style="color:#000000;font-style:normal;font-variant:normal;font-weight:normal;font-stretch:normal;font-size:medium;line-height:normal;font-family:sans-serif;font-variant-ligatures:normal;font-variant-position:normal;font-variant-caps:normal;font-variant-numeric:normal;font-variant-alternates:normal;font-feature-settings:normal;text-indent:0;text-align:start;text-decoration:none;text-decoration-line:none;text-decoration-style:solid;text-decoration-color:#000000;letter-spacing:normal;word-spacing:normal;text-transform:none;writing-mode:lr-tb;direction:ltr;text-orientation:mixed;dominant-baseline:auto;baseline-shift:baseline;text-anchor:start;white-space:normal;shape-padding:0;clip-rule:nonzero;display:inline;overflow:visible;visibility:visible;opacity:1;isolation:auto;mix-blend-mode:normal;color-interpolation:sRGB;color-interpolation-filters:linearRGB;solid-color:#000000;solid-opacity:1;vector-effect:none;fill:#000000;fill-opacity:1;fill-rule:nonzero;stroke:none;stroke-width:0.02533869;stroke-linecap:butt;stroke-linejoin:miter;stroke-miterlimit:4;stroke-dasharray:none;stroke-dashoffset:0;stroke-opacity:1;color-rendering:auto;image-rendering:auto;shape-rendering:auto;text-rendering:auto;enable-background:accumulate"
       d="m 32.281299,16.484462 c -0.03069,0.13018 -0.06062,0.26852 -0.03012,0.40304 0.02902,0.34476 0.158149,0.67223 0.291388,0.9882 0.146662,0.30593 0.269895,0.6385 0.507431,0.88877 0.05516,0.0621 0.152461,-0.0453 0.10327,-0.10552 -0.08928,-0.39716 -0.332789,-0.74929 -0.422642,-1.15186 -0.107763,-0.33603 -0.173671,-0.69683 -0.389939,-0.98465 -0.01649,-0.008 -0.04947,-0.0545 -0.05931,-0.038 z m -0.376688,0.0909 c -0.153202,0.0115 -0.354001,0.0254 -0.42031,0.19177 -0.02672,0.0108 -0.05977,-0.0638 -0.100369,-0.0813 -0.190903,-0.11526 -0.421901,-0.0466 -0.624235,-0.009 -0.168842,0.0423 -0.349449,0.12233 -0.435831,0.28178 -0.008,0.13085 0.145353,0.17238 0.249875,0.16225 0.169068,0.003 0.346434,-0.0749 0.508335,0.004 0.203018,0.0441 0.418374,-0.13256 0.413431,-0.34115 0.16628,0.0904 0.389992,0.18328 0.563157,0.0615 0.01707,-0.0401 0.08962,-0.0651 0.05345,-0.11083 -0.03413,-0.0842 -0.101564,-0.18268 -0.207225,-0.15878 z m 0.281492,0.25668 c -0.04777,0.0148 0.0091,0.0695 0.02672,0.0241 -0.0097,-0.007 -0.01707,-0.019 -0.02672,-0.0241 z m -2.860545,0.11832 c -3.866192,0.39252 -7.747849,0.63786 -11.633034,0.72344 -0.34086,0.006 -0.682522,0.0151 -1.022928,0.0151 -0.473821,-0.16941 -0.982787,-0.0556 -1.464849,0.009 -0.138019,0.0295 -0.300772,0.0516 -0.400347,0.161 -0.01707,0.0964 0.09605,0.12755 0.170316,0.11876 0.431509,0.0401 0.866719,-0.0154 1.300275,0.006 1.933038,-0.018 3.865963,-0.066 5.796612,-0.16051 1.477984,-0.1431 2.962907,-0.29639 4.449707,-0.22296 1.007746,-0.21637 2.059567,-0.16594 3.053611,-0.44453 0.09849,-0.0326 0.125677,-0.20685 0.0057,-0.22281 -0.08428,-0.009 -0.170095,0.0135 -0.254426,0.018 z m -15.176217,0.49648 c -0.107931,0.0711 -0.07011,0.22126 -0.08996,0.33135 -0.05345,1.10771 0.321983,2.18014 0.372196,3.28467 0.0057,0.0683 0.03982,0.20411 0.133468,0.15189 0.09468,-0.0673 0.01989,-0.19645 0.0239,-0.28978 -0.06421,-0.43124 -0.14854,-0.86388 -0.158436,-1.30224 -0.06198,-0.72672 -0.08115,-1.46766 -0.270573,-2.17349 -0.0057,-0.002 -0.0068,-0.007 -0.01023,-0.002 z m 18.708308,1.5928 c -0.06335,0.0472 -0.143306,0.0276 -0.213309,0.0272 -0.117659,0.0328 -0.179302,0.15219 -0.213821,0.26012 -0.159287,-0.0775 -0.300771,0.0616 -0.443963,0.11393 -1.077185,0.4864 -2.199463,0.88705 -3.212386,1.50472 -0.316355,0.18675 -0.606265,0.41219 -0.890942,0.64313 -0.187719,0.15098 -0.403133,0.25945 -0.618379,0.36406 -1.927919,1.04811 -3.740511,2.29248 -5.633797,3.4001 -0.353034,0.25712 -0.725062,0.51075 -0.981988,0.86912 0,0.074 0.09775,0.10502 0.147799,0.0553 0.327781,-0.14858 0.599894,-0.39028 0.91255,-0.56649 3.153754,-2.04145 6.288802,-4.15587 9.729394,-5.694 0.303046,-0.1417 0.621845,-0.25957 0.917669,-0.40895 0.07427,-0.0771 0.08206,-0.19148 0.07967,-0.29292 0.128578,0.11346 0.328975,0.0811 0.442371,-0.0367 0.112883,0.0182 0.200001,-0.17249 0.07626,-0.21719 -0.02959,-0.0145 -0.06472,-0.0254 -0.09713,-0.0214 z m -6.578651,0.48545 c -0.04092,0.0407 -0.09349,0.0711 -0.152006,0.0628 -0.657503,0.13427 -1.334398,0.20518 -1.96392,0.43568 -0.03982,0.0637 0.03184,0.13976 0.09918,0.1136 0.416098,0.0239 0.827821,-0.10277 1.246305,-0.0658 -0.638504,0.58412 -1.465245,0.88726 -2.226133,1.27036 -1.330807,0.65564 -2.500402,1.59032 -3.605848,2.57151 -0.287296,0.23053 -0.613828,0.40703 -0.911641,0.62288 -0.293381,0.20656 -0.585791,0.42341 -0.832597,0.68382 -0.02447,0.081 0.06659,0.1429 0.136991,0.10285 0.22332,-0.0561 0.429918,-0.16855 0.625091,-0.28796 0.403416,-0.26914 0.760371,-0.60007 1.15196,-0.88527 1.020829,-0.80474 2.072763,-1.57519 3.197657,-2.22934 1.078322,-0.68361 2.16557,-1.35502 3.288475,-1.96349 0.197725,0.10754 0.409333,-0.21559 0.235887,-0.35585 -0.0766,-0.0683 -0.192497,-0.0859 -0.289399,-0.0758 z m -0.0057,0.20915 c 0.118457,2.2e-4 0.122836,0.20542 0,0.20353 -0.104805,0.0245 -0.172023,-0.13939 -0.07114,-0.18837 0.02103,-0.0128 0.04606,-0.0162 0.07006,-0.0151 z m -2.77655,0.13167 c -0.710559,0.23213 -1.466555,0.27367 -2.182516,0.47665 -0.05289,0.0605 0.03413,0.13138 0.09736,0.11152 0.46904,-0.0376 0.939448,-0.0976 1.411224,-0.0677 0.241514,0.003 0.527613,0.007 0.716586,-0.167 0.07455,-0.10021 0.08234,-0.29369 -0.04264,-0.35346 z m -2.804535,0.44715 c -0.02161,0.0502 -0.008,0.11433 -0.02787,0.16391 0.08354,0.0511 0.152862,-0.11325 0.06631,-0.15249 -0.01138,-0.006 -0.02615,-0.0125 -0.03867,-0.0114 z m -0.52335,0.20561 c -0.06722,-0.007 -0.03528,0.10928 0.02046,0.0622 0.03753,-0.0181 0.02218,-0.0695 -0.02046,-0.0622 z m -5.080477,0.20862 c -0.09582,0.0471 -0.223258,0.14804 -0.174412,0.26751 0.09099,0.14027 0.382549,0.049 0.327613,-0.12894 -0.0273,-0.0637 -0.08496,-0.12219 -0.153201,-0.13857 z m 0.564523,0.10505 c -0.05232,0.0165 -0.06699,0.0906 -0.04492,0.13316 0.09452,-0.0328 1.582565,-0.22412 1.663373,-0.28736 -0.07791,-0.0108 -1.539911,0.15222 -1.618615,0.15417 z m 11.560243,4.52445 c -1.066777,0.10064 -2.155847,0.12664 -3.17855,0.47455 -0.116579,0.0528 -0.26011,0.12226 -0.290135,0.25682 0.07649,0.0646 0.177538,-0.0141 0.263919,-0.018 2.197303,-0.44899 4.460059,-0.33108 6.676807,-0.11068 0.185561,0.0198 0.374246,0.0543 0.557076,0.0253 0.02615,-0.0659 -0.0546,-0.0894 -0.100602,-0.10657 -0.07711,-0.0408 -0.0729,-0.17857 0.025,-0.18714 0.482746,-0.0987 0.979312,-0.10612 1.470079,-0.0972 0.09156,0.005 0.193347,0.008 0.26227,0.074 0.105034,0.0215 0.21405,-0.007 0.32062,-0.005 0.154056,-0.0138 0.325284,-0.009 0.456305,-0.0985 0.01879,-0.075 -0.06631,-0.11026 -0.126928,-0.094 -0.852785,-0.0469 -1.70995,0.0141 -2.564665,-0.009 -1.118698,-0.002 -2.242229,0.0512 -3.356715,-0.0717 -0.138755,-0.0173 -0.275182,-0.0347 -0.414391,-0.0333 z m -10.742713,0.71881 c -1.981603,1.35959 -3.945068,2.75141 -6.013564,3.97753 -0.225533,0.17792 -0.427924,0.4024 -0.5230626,0.67908 -0.09383,-0.0898 -0.216781,-0.1655 -0.304357,-0.25035 -0.217975,0.1467 -0.406771,0.41722 -0.311632,0.6853 0.105545,0.32234 0.416212,0.50979 0.676265,0.69819 0.4903696,0.32823 1.0613176,0.57387 1.4410226,1.04279 0.08269,0.13282 0.179016,0.26788 0.330114,0.32704 0.0712,0.0422 0.179474,0.12291 0.254994,0.0521 0.03695,-0.11068 -0.08957,-0.18398 -0.15246,-0.25435 -0.486274,-0.4756 -1.000298,-0.9271 -1.547875,-1.32825 -0.168044,-0.0585 -0.271487,-0.21541 -0.4021676,-0.32684 -0.155419,-0.15834 -0.280641,-0.34359 -0.381354,-0.5408 0.115044,0.0602 0.23998,0.19035 0.380843,0.13589 0.09155,-0.0365 0.0273,-0.17623 0.1263016,-0.20473 0.275636,-0.0789 0.412632,-0.37175 0.665064,-0.49371 2.066961,-1.2572 4.026445,-2.68166 6.077368,-3.96479 -0.05999,-0.10883 -0.119992,-0.21767 -0.179986,-0.32651 -0.04493,0.0308 -0.09031,0.0616 -0.135514,0.0924 z m 15.331291,0.0283 c -0.03069,3.3e-4 -0.09849,0.0362 -0.03695,0.0594 0.175381,0.1351 0.406207,0.15445 0.600519,0.25285 1.672929,0.65214 3.184918,1.72897 4.319199,3.12278 0.05459,0.0141 0.09548,-0.0576 0.05061,-0.0958 -0.154454,-0.32133 -0.395399,-0.58894 -0.613203,-0.86754 -1.097597,-1.27973 -2.644621,-2.16105 -4.299178,-2.47141 -0.0074,-3.3e-4 -0.0142,-4.4e-4 -0.02103,-2.2e-4 z m -9.252844,0.0447 c -0.726258,0.0743 -1.436701,0.27544 -2.108019,0.56596 -0.04663,0.0153 -0.09048,0.0179 -0.117091,0.0609 -0.101224,0.0498 -0.471999,0.44727 -0.492301,0.53184 0.778173,-0.44158 1.697491,-0.51166 2.502453,-0.88688 0.104121,-0.0622 0.198691,-0.15457 0.233554,-0.27371 l -0.01535,0.002 z m 3.966901,1.37808 c -1.161406,0.0978 -2.352722,0.0651 -3.470393,0.43758 -0.367762,0.13246 -0.727165,0.30751 -1.117104,0.37208 -1.379659,0.36274 -2.709792,0.88739 -4.04538,1.38273 -0.0853,0.0109 -0.116178,-0.11384 -0.04039,-0.15088 0.173049,-0.16644 0.402904,-0.27413 0.537342,-0.4768 -0.02275,-0.0764 -0.126646,-0.0683 -0.170033,-0.0161 -1.523877,0.81172 -2.826767,1.98442 -4.389203,2.73047 -0.132387,0.0845 -0.218994,0.23223 -0.263183,0.37852 -0.02161,0.0824 0.04891,0.16571 0.136198,0.13723 0.1652,-0.0278 0.292357,-0.14681 0.441237,-0.21568 0.440722,-0.25885 0.827875,-0.59688 1.262401,-0.86458 0.381975,-0.15338 0.728074,-0.381 1.102774,-0.55024 2.840697,-1.41747 5.906422,-2.49173 9.091793,-2.71896 1.55231,-0.10724 3.132204,-0.0259 4.638562,0.3841 1.692036,0.52315 3.214264,1.66993 4.071824,3.23295 0.467281,0.86838 0.676323,1.87633 0.573851,2.85827 0.0239,0.66509 -0.05721,1.34296 -0.314023,1.95995 -0.475241,1.20775 -1.40508,2.18774 -2.470152,2.90446 -0.568104,0.38226 -1.183409,0.69181 -1.821689,0.93851 0.008,-0.14047 -0.100374,-0.24106 -0.161844,-0.35576 0.120384,-0.31879 0.134147,-0.66087 0.175148,-0.99647 0.07654,-0.99602 -0.02787,-1.9966 -0.08433,-2.99179 -0.02902,-0.0474 -0.107994,-0.0268 -0.09969,0.0326 -0.0415,0.19833 -0.02218,0.4041 -0.04321,0.60586 -0.0131,0.41845 -0.03184,0.83984 -0.128807,1.24887 -0.187945,-0.46267 -0.289055,-0.96365 -0.561225,-1.38906 -0.969532,-1.78856 -2.626194,-3.16691 -4.513681,-3.89628 -0.06358,-0.0202 -0.183794,-0.0485 -0.158033,-0.14193 0.04436,-0.0752 0.153201,-0.044 0.225705,-0.0619 0.492641,-0.03 0.989891,0.0292 1.47844,-0.0521 0.06113,-0.0681 -0.03127,-0.14851 -0.102931,-0.14403 -0.294916,-0.0572 -0.590228,-0.13683 -0.893385,-0.12157 -0.377148,0.0144 -0.75645,0.0859 -1.129558,0.1466 -0.192611,0.0418 -0.394376,0.0928 -0.560828,0.20155 -0.06085,0.093 0.03016,0.19219 0.122153,0.21015 0.2886,0.11424 0.613029,0.0853 0.900209,0.21051 2.313481,0.80255 4.192152,2.74034 4.944,5.06837 0.20677,0.64913 0.337336,1.32768 0.339554,2.01037 -0.09531,-0.035 -0.125279,0.0809 -0.09878,0.14919 0.0057,0.19468 -0.01477,0.43705 0.147397,0.57747 0.1147,0.0355 0.225935,-0.10022 0.191702,-0.2096 0.168724,-0.0642 0.354456,-0.009 0.525225,-0.0667 0.522271,-0.10782 1.01429,-0.31512 1.508184,-0.51077 0.284393,-0.12372 0.576125,-0.2553 0.81781,-0.44875 0.02959,-0.0887 -0.08217,-0.1419 -0.148368,-0.0956 -0.120613,0.0404 -0.249535,0.0863 -0.380498,0.063 0.272964,-0.32102 0.656531,-0.51293 0.983293,-0.77058 0.226562,-0.16714 0.464094,-0.33144 0.644022,-0.54944 0.03069,-0.0767 -0.04492,-0.13149 -0.08644,-0.17881 -0.0415,-0.11209 0.08877,-0.18026 0.117549,-0.27604 0.229515,-0.39786 0.424,-0.82837 0.749739,-1.16144 0.06034,0.15563 0.07757,0.33684 0.159115,0.47598 0.130963,-0.44931 0.07984,-0.9301 0.104862,-1.39598 0,-1.10844 -0.154449,-2.21038 -0.229572,-3.31495 0.03126,-0.0975 0.104236,-0.22668 0.02333,-0.31844 -0.110494,-0.0369 -0.171625,0.0979 -0.256811,0.14231 -0.09667,0.0479 -0.216665,-0.0297 -0.220194,-0.13554 -0.09593,-0.28027 -0.152345,-0.5762 -0.316862,-0.82777 -0.451927,-0.83178 -1.22976,-1.42531 -2.027723,-1.89884 -0.525908,-0.33599 -1.050171,-0.66899 -1.606903,-0.95136 -0.151324,-0.0874 -0.297473,-0.18326 -0.444876,-0.2771 0.386302,-0.0338 0.784316,0.10729 1.159187,-0.0314 0.09116,-0.006 0.08849,-0.14312 0,-0.15515 -0.808824,-0.0742 -1.62567,-0.0379 -2.437907,-0.0282 -0.765267,0.0133 -1.534911,-0.003 -2.291873,-0.12057 -0.02902,0.003 -0.0584,0.005 -0.08758,0.008 z m 11.607837,1.31365 c -0.10145,0.0132 -0.0675,0.13528 -0.07995,0.20321 -0.07706,0.818 -0.0074,1.64216 -0.04777,2.46116 -0.02959,0.0823 -0.143249,0.0326 -0.150869,-0.0377 -0.124198,-0.27454 -0.223601,-0.56912 -0.425085,-0.79732 -0.07182,-0.0123 -0.114532,0.0771 -0.0741,0.13203 0.101281,0.40394 0.293611,0.7805 0.36731,1.19229 0.343365,1.41517 0.34422,2.90871 0.0347,4.32981 -0.433671,1.59813 -1.399733,3.01769 -2.611919,4.13059 -1.42402,1.30212 -3.216081,2.18179 -5.102148,2.57194 -0.267561,0.10608 -0.454145,0.34181 -0.635722,0.55399 -0.540751,0.70872 -0.728529,1.63783 -1.360097,2.28508 -0.247657,0.25949 -0.593354,0.38885 -0.860974,0.62245 -0.584257,0.46542 -1.236811,0.83979 -1.910007,1.16054 -1.50693,0.71016 -3.148577,1.07829 -4.792618,1.29735 -1.399789,0.18936 -2.811638,0.28251 -4.221498,0.34762 -0.30822,-0.0972 -0.465002,-0.40725 -0.647091,-0.64787 -0.12602,-0.19302 -0.21331,-0.4184 -0.40581,-0.55885 -0.09826,0.002 -0.121011,0.12496 -0.0965,0.20039 0,0.36178 0.13637,0.73647 0.421558,0.97355 0.319993,0.29418 0.768846,0.39718 1.194332,0.39019 0.944625,0.0167 1.880603,-0.32042 2.827446,-0.16129 0.413483,0.0766 0.838057,0.01 1.256999,0.0267 1.502723,-0.009 3.005955,0.0339 4.508283,0.0179 0.03753,-0.0549 -0.0347,-0.10719 -0.0857,-0.10501 -0.785108,-0.29434 -1.636244,-0.22648 -2.455021,-0.17154 -0.585108,0.0379 -1.179374,0.0932 -1.760105,-0.018 -0.0708,-0.0443 -0.01477,-0.13552 0.05118,-0.14592 0.990803,-0.31215 2.065994,-0.26326 3.026768,-0.67437 0.508569,-0.19683 1.017133,-0.39663 1.504087,-0.6436 1.156514,-0.57234 2.222098,-1.33607 3.082502,-2.30071 0.0646,-0.0935 0.02615,0.059 0.02615,0.10828 -0.025,0.21989 -0.1329,0.43807 -0.08707,0.66006 0.08598,0.0421 0.142513,-0.063 0.158206,-0.13151 0.13017,-0.25024 0.216436,-0.52825 0.226106,-0.80999 0.169523,-0.95802 0.884403,-1.76736 1.768007,-2.14638 0.536319,-0.25022 1.12876,-0.34958 1.714667,-0.3888 0.750819,-0.21742 1.546512,-0.25263 2.272138,-0.54883 0.08763,-0.0681 0.01989,-0.20665 -0.0824,-0.20748 -0.183227,-0.0217 -0.342399,0.097 -0.519258,0.12501 -0.363098,0.0994 -0.735068,0.20171 -1.113296,0.20094 -0.08103,-0.0295 -0.03523,-0.13426 0.0273,-0.15536 0.637654,-0.31491 1.236583,-0.70148 1.786602,-1.15214 1.387794,-1.12119 2.483403,-2.6097 3.096605,-4.28853 0.121469,0.43941 0.06017,0.90556 0.164005,1.34591 0.07177,0.0322 0.132388,-0.055 0.109867,-0.1198 0.09031,-0.97062 0.02672,-1.95054 0.06853,-2.9253 0.01764,-1.25583 -0.03528,-2.51153 -0.02046,-3.76726 0.01821,-0.81263 0.05345,-1.634 -0.110436,-2.43329 -0.01252,-1.1e-4 -0.02447,-3.5e-4 -0.03695,-1.1e-4 z m -2.952444,1.39773 c -0.179187,0.0572 -0.237307,0.2682 -0.277625,0.43059 -0.03471,0.21972 0.0142,0.48237 0.201082,0.6169 0.125675,0.0202 0.179474,-0.12529 0.170435,-0.22764 0.0057,-0.19796 -0.06904,-0.40931 0.02672,-0.59741 0.0239,-0.0859 -0.01138,-0.22711 -0.120785,-0.22244 z m -13.327393,1.70201 c -1.494593,0.22874 -3.017615,0.0387 -4.512833,0.22591 -0.03753,0.0469 0.01706,0.10812 0.07029,0.0929 0.399094,0.0586 0.807519,0.0201 1.211504,0.0414 0.28883,0.006 0.57766,0.0307 0.8616,0.0852 -0.478085,0.24229 -1.044545,0.29513 -1.479353,0.62085 -0.768449,0.53184 -1.397972,1.23919 -1.96164,1.97973 -0.06051,0.0584 -0.100087,0.20112 -0.207908,0.16507 -0.06932,-0.0214 -0.07973,-0.0976 -0.0882,-0.15777 -0.01477,-0.062 -0.09616,-0.14692 -0.149048,-0.0729 -0.0762,0.11891 -0.03126,0.26899 -0.0563,0.40172 -0.0239,0.54354 -0.01707,1.09084 0.09025,1.62536 0.03241,0.0745 0.151094,0.0871 0.174752,-4.4e-4 0.08524,-0.174 0.08422,-0.37397 0.131078,-0.5594 0.129658,-0.77426 0.511069,-1.49139 1.018157,-2.08432 1.007635,-1.16673 2.515187,-1.84201 4.040317,-1.95645 0.487694,-0.0388 0.979426,-0.009 1.462005,0.062 0.250673,-0.0277 0.505892,-0.0467 0.739901,-0.14447 0.05346,-0.0614 -0.02161,-0.13959 -0.0899,-0.1339 -0.403192,-0.0484 -0.811273,-0.0848 -1.203148,-0.19828 -0.01707,0.003 -0.03413,0.005 -0.05118,0.008 z m -8.59779,0.46572 c -0.286272,0.0845 -0.617466,0.16176 -0.797395,0.41919 -0.04207,0.10111 0.03016,0.20803 0.115552,0.25875 -0.111173,0.0361 -0.194767,0.219 -0.08257,0.29553 0.11425,0.0707 0.32244,-0.0137 0.292357,-0.16252 -0.03016,-0.0563 -0.08246,-0.0961 -0.117205,-0.14942 0.318688,-0.0593 0.508283,-0.3645 0.601261,-0.65082 0.01195,-0.0202 0.0057,-0.0165 -0.01195,-0.0107 z m 9.843072,1.78914 c -0.06591,0.0513 0.01138,0.13243 0.03298,0.18407 0.0131,0.10239 -0.113338,0.1375 -0.192783,0.1177 -0.607174,0.0135 -1.221342,-0.23214 -1.811115,-0.0263 -0.202674,0.044 -0.40592,-0.0184 -0.608823,-0.0145 -0.194146,-0.006 -0.412628,-0.002 -0.574644,0.12284 -0.08723,0.0886 -0.114361,0.22238 -0.09258,0.3421 -0.898108,0.44676 -1.468258,1.42168 -1.505904,2.41218 -0.02218,0.37087 0.03012,0.74359 0.0142,1.1161 0.02558,0.46267 0.349962,0.8378 0.684684,1.12803 0.463012,0.41289 0.987385,0.74883 1.489984,1.10961 0.206426,0.11215 0.4302,0.19365 0.620821,0.33358 -0.255223,0.0671 -0.530802,-0.0403 -0.775217,0.0752 -0.09196,0.0163 -0.06392,0.14475 0.01477,0.15899 0.565432,0.0557 1.136552,0.0386 1.705513,0.032 0.433785,-0.008 0.869673,-0.004 1.300729,-0.0401 0.193801,-0.0541 0.393405,0.0181 0.586131,0.0209 0.446864,0.0436 0.903738,0.14805 1.349522,0.0461 0.161219,-0.042 0.233952,-0.29973 0.07227,-0.38474 -0.194198,-0.0189 -0.393692,-0.008 -0.589372,-0.0208 -1.049885,-0.0216 -2.121381,0.0245 -3.143233,-0.26144 -0.642262,-0.19418 -1.314378,-0.38206 -1.841198,-0.81817 -0.649141,-0.50083 -1.146219,-1.25258 -1.201327,-2.08538 -0.02161,-0.55889 0.104581,-1.12695 0.371746,-1.61883 0.391245,-0.66817 1.099987,-1.10123 1.843469,-1.27077 0.84602,-0.20307 1.73952,-0.13408 2.573422,0.0923 1.651546,0.49001 2.985146,1.90998 3.375539,3.58745 0.187722,0.69369 0.321926,1.40505 0.601205,2.0694 0.0563,0.0553 0.155247,-0.0153 0.126755,-0.0879 0.0085,-0.28692 -0.06699,-0.56784 -0.0791,-0.85368 -0.072,-0.59008 -0.225085,-1.17153 -0.467511,-1.71487 0.02218,0.0182 -0.05061,-0.0897 -0.06261,-0.13215 -0.578626,-1.19102 -1.512161,-2.21899 -2.676865,-2.84923 -0.130623,-0.043 -0.255051,-0.10248 -0.378227,-0.16308 0.366401,-0.13538 0.765041,-0.067 1.140988,-0.1473 0.06136,-0.0573 -0.01989,-0.14063 -0.08649,-0.12906 -0.357299,-0.0734 -0.72023,-0.0569 -1.082701,-0.0617 -0.207282,-0.007 -0.422012,-0.0456 -0.588579,-0.17799 -0.04777,-0.0308 -0.09497,-0.0661 -0.146035,-0.0904 z m 4.223883,3.03049 c -0.122775,0.0328 -0.177993,0.16831 -0.224964,0.27443 -0.0563,0.15491 -0.06204,0.31898 -0.07273,0.482 0.08803,0.0823 0.235941,0.18912 0.34763,0.0845 0.11959,-0.20001 0.05118,-0.44058 0.03241,-0.65798 -0.01764,-0.0586 0.0057,-0.14421 -0.05289,-0.17924 -0.0097,-0.004 -0.01989,-0.005 -0.03016,-0.004 z m -11.798401,0.0859 c -0.09139,0.0617 -0.100766,0.19159 -0.09662,0.28998 0.025,0.10253 0.139267,0.16557 0.240266,0.13411 -0.187495,0.74507 -0.149845,1.52008 -0.125279,2.28075 0.0142,0.11213 0.01879,0.24651 0.100311,0.33159 0.10242,0.0332 0.163384,-0.0911 0.139382,-0.17697 -0.01707,-0.16961 -0.05118,-0.34078 -0.01535,-0.51055 0.01477,-0.10934 0.06238,-0.21068 0.118793,-0.30429 0.169808,0.32338 0.227187,0.69476 0.441634,0.99416 0.671944,1.13427 1.76704,1.95793 2.947156,2.50783 0.615191,0.29415 1.265809,0.50581 1.913702,0.71394 0.07348,0.0459 0.0091,0.15884 -0.0683,0.14137 -0.480417,0.0228 -0.960037,-0.0305 -1.439088,-0.0603 -0.366396,-0.0243 -0.734671,-0.0563 -1.101297,-0.0365 -0.07546,0.0378 -0.04776,0.15325 0.02902,0.17038 0.343422,0.20867 0.767087,0.17215 1.15316,0.20727 1.042379,0.0316 2.088057,-0.15626 3.130383,-0.0339 0.720679,0.055 1.45188,0.15137 2.167162,0.0138 0.142168,-0.044 0.277114,-0.17049 0.267902,-0.32913 -0.716134,0.0324 -1.436474,0.0143 -2.151124,-0.0492 -1.378244,-0.12806 -2.755115,-0.44541 -3.997672,-1.0682 -1.074623,-0.54724 -2.04728,-1.34421 -2.681808,-2.37956 -0.427757,-0.75534 -0.589147,-1.6194 -0.786877,-2.45438 0.146437,0.0187 0.285134,-0.18113 0.171739,-0.29511 -0.09866,-0.0846 -0.236623,-0.0798 -0.357466,-0.0871 z m 11.496951,0.72487 c 0.0057,10e-4 -0.0057,-0.006 0,0 z m -0.748889,2.94188 c -0.09264,-0.0209 -0.607231,0.007 -0.60018,0.12898 0.0563,0.13389 0.782212,-0.0194 0.741154,-0.0803 0.02959,-0.0445 0.09076,-0.0496 0.127893,-0.0758 0.02161,-0.0828 -0.257265,-0.0638 -0.268867,0.0271 z m 0.377654,0.0573 c -0.01989,0.12649 0.11038,0.20564 0.22082,0.21989 0.126359,0.0238 0.309984,0.0389 0.367076,-0.1084 0.0097,-0.13588 -0.519369,-0.21308 -0.587896,-0.11149 z m -0.550703,2.79536 c -0.464833,0.35676 -0.653123,0.93924 -0.895148,1.45253 -0.07063,0.15024 -0.177653,0.2785 -0.288716,0.39924 -0.0563,0.0703 -0.03298,0.23326 0.08001,0.21221 0.124485,-0.0494 0.145754,-0.20403 0.208477,-0.30865 0.07905,-0.17885 0.199718,-0.33336 0.331198,-0.47586 0.266137,-0.33538 0.551215,-0.70366 0.58255,-1.14841 -0.0085,-0.0273 0.01477,-0.15158 -0.01821,-0.13106 z m -1.846882,1.51326 c -0.325227,0.0113 -0.597848,0.21596 -0.905617,0.29765 -2.066335,0.73379 -4.284676,0.86698 -6.459855,0.84568 -0.984092,-0.008 -1.967615,-0.0459 -2.951081,-0.0748 -0.02443,-0.077 -0.101224,-0.1467 -0.172308,-0.16299 -0.07751,0.11607 -0.210236,0.24674 -0.1615,0.39874 0.08149,0.087 0.213309,0.0214 0.286043,-0.0444 0.0057,0.35083 0.267447,0.62663 0.539842,0.81332 0.160081,0.10265 0.339268,0.26025 0.543538,0.20838 0.0832,-0.0953 -0.01367,-0.2156 -0.08922,-0.27893 -0.140065,-0.14862 -0.292129,-0.28938 -0.462444,-0.39934 -0.08655,-0.0269 -0.113567,-0.12636 -0.170946,-0.18667 -0.04379,-0.0754 0.025,-0.18746 0.115613,-0.1561 2.094654,0.34266 4.227239,0.31846 6.337305,0.52444 0.203247,-0.006 0.421161,0.0231 0.607629,-0.0654 0.03356,-0.0808 -0.07495,-0.12093 -0.138641,-0.11151 -0.450904,-0.0512 -0.906297,-0.0626 -1.355097,-0.12991 -0.05783,-0.007 -0.147795,-0.0487 -0.109241,-0.11986 0.07006,-0.0921 0.20842,-0.0502 0.306632,-0.0774 1.364872,-0.14437 2.748972,-0.38041 3.985951,-1.00426 0.127611,-0.0706 0.267844,-0.12901 0.383118,-0.21676 0.03016,-0.0801 -0.08923,-0.0536 -0.129716,-0.0599 z"
       id="path292-8"
       inkscape:connector-curvature="0"
       sodipodi:nodetypes="cccccccccccccccccccccccccccccccccccccccccccccccccccccccccccccccccccccccccccccccccccccccccccccccccccccccccccccccccccccccccccccccccccccccccccccccccccccccccccccccccccccccccccccccccccccccccccccccccccccccccccccccccccccccccccccccccccccccccccccccccccccccccccccccccccccccccccccccccccccccccccccccccccccccccccccccccccccccccccccccccccccccccccccccccccccccccccccccccccccccccccccccccccccccccccccccccccccccccccccccccccccccccccccccccccccccccccccccccc"
       inkscape:export-xdpi="28.958078"
       inkscape:export-ydpi="28.958078"
       inkscape:export-filename="C:\Users\Jerome\Desktop\sample chars.png" />
    <path
       style="color:#000000;font-style:normal;font-variant:normal;font-weight:normal;font-stretch:normal;font-size:medium;line-height:normal;font-family:sans-serif;font-variant-ligatures:normal;font-variant-position:normal;font-variant-caps:normal;font-variant-numeric:normal;font-variant-alternates:normal;font-feature-settings:normal;text-indent:0;text-align:start;text-decoration:none;text-decoration-line:none;text-decoration-style:solid;text-decoration-color:#000000;letter-spacing:normal;word-spacing:normal;text-transform:none;writing-mode:lr-tb;direction:ltr;text-orientation:mixed;dominant-baseline:auto;baseline-shift:baseline;text-anchor:start;white-space:normal;shape-padding:0;clip-rule:nonzero;display:inline;overflow:visible;visibility:visible;opacity:1;isolation:auto;mix-blend-mode:normal;color-interpolation:sRGB;color-interpolation-filters:linearRGB;solid-color:#000000;solid-opacity:1;vector-effect:none;fill:#000000;fill-opacity:1;fill-rule:nonzero;stroke:none;stroke-width:0.01820037;stroke-linecap:butt;stroke-linejoin:miter;stroke-miterlimit:4;stroke-dasharray:none;stroke-dashoffset:0;stroke-opacity:1;color-rendering:auto;image-rendering:auto;shape-rendering:auto;text-rendering:auto;enable-background:accumulate"
       d="m 49.30087,17.459512 c -0.921024,0.21733 -0.793642,1.34825 -0.607853,2.04834 0.153765,0.5745 0.223257,1.3037 -0.2981,1.72213 -0.724666,-0.23872 -1.492546,0.0296 -2.226247,0.0691 -0.407001,0.0728 -0.753722,0.5953 -0.304697,0.87237 0.365432,0.41508 0.800637,0.71073 1.298111,0.93764 0.706806,0.61019 0.351783,1.73469 -0.166902,2.35681 -0.573339,0.79282 -1.292029,1.4797 -1.690444,2.38068 0.687757,-1.32821 2.21618,-2.22665 2.351756,-3.8123 0.01477,-0.80754 -0.713518,-1.2777 -1.351344,-1.57423 -0.44533,-0.44857 0.219337,-1.06574 0.680304,-1.16963 0.433503,-0.16348 0.832712,0.21405 1.25012,-0.006 0.347801,-0.11749 0.623039,0.33598 0.922219,-0.0266 0.857445,-0.5876 0.259943,-1.67729 -0.07057,-2.3884 -0.169579,-0.41505 -0.419,-1.19277 0.22906,-1.25002 0.238106,-0.0698 0.763048,-0.0291 0.832201,-0.0426 -0.284623,-0.0242 -0.559576,-0.13266 -0.847612,-0.11726 z m 1.292144,0.24763 c 0.143306,0.1235 0.543083,0.37529 0.669099,0.56516 0.127612,-0.23686 -0.50595,-0.43924 -0.669099,-0.56516 z m 1.21213,0.9949 c -0.159799,0.11235 -0.403933,-0.0736 -0.241744,0.20621 0.300317,0.4648 0.157351,1.09266 0.424683,1.53641 0.44556,0.34105 0.909142,0.7779 1.526154,0.60239 0.734839,-0.22651 1.269222,0.60755 1.054832,1.26003 -0.02333,0.0655 0.295881,-0.33603 0.227985,-0.49017 -0.2331,-0.97944 -1.399339,-0.98541 -2.194802,-1.12358 -0.58454,-0.0892 -0.870869,-0.88199 -0.504071,-1.33738 -0.05345,-0.23193 -0.154,-0.46664 -0.293037,-0.65391 z m 2.657016,4.02527 c -0.179813,0.32139 -0.247943,0.87949 0.268925,0.87469 0.668592,-0.0297 1.314095,0.49964 1.646087,1.07583 0.419167,0.93139 -0.382319,2.29427 -1.477019,2.0701 -0.807917,-0.048 -1.675712,0.29965 -2.443253,-0.0139 -0.692304,-0.39717 -0.840672,-1.44343 -1.716827,-1.55141 -0.431907,-0.28746 -0.0415,-0.83137 0.297076,-1.00188 0.285358,-0.25451 0.611209,-0.46089 0.954974,-0.62707 -1.092597,-0.29219 -2.103927,0.55565 -2.536632,1.51064 -0.722783,1.35311 -1.031743,2.93391 -1.93912,4.18224 -0.411776,0.45262 -1.165043,0.98078 -1.741963,0.63933 0.466426,0.49024 1.30573,0.47284 1.629988,-0.16416 0.723925,-1.09117 0.981477,-2.42089 1.706535,-3.50722 0.3983,-0.6084 1.447507,-1.09624 2.020844,-0.47051 0.204552,0.61644 -0.664781,0.83801 -0.994894,1.17745 -0.75344,0.67131 -0.832484,1.75522 -1.069055,2.67267 0.04092,1.26579 1.396782,1.73989 2.391678,2.11404 1.222647,0.41828 2.570124,0.50027 3.832123,0.35199 0.892423,-0.24117 1.934802,-0.63408 2.34709,-1.5231 -0.06233,-0.88071 -0.85244,-1.67327 -1.771763,-1.49522 -0.489113,0.0196 -0.231848,0.051 0.08934,0.0917 0.670925,0.0617 1.58575,0.54718 1.334451,1.35112 -0.541091,1.40639 -2.295339,1.84437 -3.644747,1.51698 -1.625044,0.12292 -3.498032,-0.5636 -4.141881,-2.17469 -0.243393,-0.57149 -0.287353,-1.25093 0.163947,-1.73248 0.361167,-0.53692 0.785511,-1.02725 1.18125,-1.53831 -0.04149,0.92841 0.283824,2.08441 0.960266,2.59153 -0.679228,-0.58147 -0.38113,-1.72609 0.419339,-2.0346 0.717266,-0.39228 1.516143,-0.0889 2.262584,-0.0399 0.658979,-0.0557 1.246534,-0.39336 1.857805,-0.59201 0.782494,-0.48796 0.280641,-1.4972 -0.09571,-2.08594 -0.305719,-0.49924 -0.805019,-0.82474 -1.362148,-0.93026 -0.28849,-0.16461 -0.434636,-0.51676 -0.39972,-0.84004 z m -3.386171,1.31922 c -0.402053,0.38724 -0.733988,0.85421 -1.280312,1.06674 0.126014,-0.67748 0.512088,-1.484 1.313976,-1.48578 0.876046,-0.17128 0.643227,-0.18233 -0.03356,0.41904 z m -5.935199,4.32866 c -0.152121,0.46533 0.116465,1.13652 0.418316,1.3152 -0.330854,-0.35874 -0.484625,-0.87075 -0.410524,-1.3526 z m 10.278449,0.71666 c -1.04858,0.19155 -2.287552,0.69795 -3.28728,0.28226 1.090604,0.57206 2.345499,0.18137 3.388901,-0.29769 z m -9.305333,6.62567 c 0.571346,0.76215 0.58528,2.0332 1.596893,2.39378 0.4575,0.0803 0.906014,0.20354 1.361636,0.29347 0.02333,0.45546 -0.160028,0.9388 0.01477,1.34985 -0.109188,0.3846 0.280867,0.76813 0.641235,0.51023 0.798761,-0.27418 1.540427,-0.68559 2.344137,-0.92877 1.085655,-0.12002 2.001048,-0.88577 2.770067,-1.59494 0.333244,-0.73935 -0.415304,-1.43985 -1.028277,-1.74051 -0.692757,-0.26194 -1.445059,-0.043 -2.168352,-0.0486 -1.244432,0.17366 -2.515762,0.44546 -3.76622,0.17852 -0.650108,0.0804 -1.271838,-0.13244 -1.813841,-0.4777 z m 6.763872,0.20705 c 0.760031,0.006 1.819701,0.32898 1.842958,1.24274 -0.124424,1.25021 -1.509264,1.67124 -2.515245,1.9989 -0.891229,0.21989 -1.718368,1.02541 -2.677945,0.73799 -0.552128,-0.15045 -0.446071,-0.80921 -0.366966,-1.2364 0.05175,-0.19051 0.260908,-0.39082 -0.05983,-0.38008 -0.407794,-0.24852 -0.933879,0.0189 -1.334622,-0.3165 -0.502709,-0.31161 -1.063078,-1.09112 -0.636345,-1.64099 0.46176,-0.33623 1.042605,0.0902 1.556007,-0.0396 1.409172,0.0332 2.827958,-0.0243 4.191984,-0.36609 z m -5.643639,6.15073 c -0.664386,0.35416 -1.172324,0.96305 -1.457001,1.65493 0.279389,-0.61067 0.737397,-1.16343 1.363166,-1.43817 0.172194,0.87004 0.272625,1.76361 0.178964,2.64246 0.195111,0.42797 0.328009,0.8929 0.553318,1.30147 0.762139,0.72376 1.871166,0.19792 2.78895,0.27367 1.738668,-0.13027 3.41927,-0.96886 5.178581,-0.76172 0.884459,0.18903 1.378807,1.34067 0.915675,2.1001 -0.527729,0.44208 -1.293846,0.48631 -1.945434,0.62116 -1.978816,0.20224 -3.979014,-0.13497 -5.940711,0.1967 -1.853938,0.15959 -3.396578,-1.62866 -3.386573,-3.40855 -0.01252,-0.20497 0.03638,-0.6983 -0.0057,-0.26938 -0.202507,1.64345 0.897649,3.5708 2.569555,3.77935 0.414903,-0.26957 0.973795,0.0806 1.431922,0.0413 1.515856,0.239 3.030521,0.35554 4.541148,0.13298 1.181081,-0.0474 2.640925,-0.37546 3.228538,-1.53071 0.136365,-1.01349 -1.004451,-1.81225 -1.942709,-1.75995 -2.170176,0.056 -4.353939,1.3403 -6.518602,0.53453 -0.634924,-0.26514 -1.430669,-0.70269 -1.339058,-1.51359 -0.195852,-0.80127 0.669615,-1.61292 0.125905,-2.37181 -0.09053,-0.10336 -0.226957,-0.16777 -0.340749,-0.22479 z"
       id="path3063-3"
       inkscape:connector-curvature="0"
       inkscape:export-filename="C:\Users\Jerome\Desktop\sample chars.png"
       inkscape:export-xdpi="28.958078"
       inkscape:export-ydpi="28.958078" />
    <path
       style="color:#000000;font-style:normal;font-variant:normal;font-weight:normal;font-stretch:normal;font-size:medium;line-height:normal;font-family:sans-serif;font-variant-ligatures:normal;font-variant-position:normal;font-variant-caps:normal;font-variant-numeric:normal;font-variant-alternates:normal;font-feature-settings:normal;text-indent:0;text-align:start;text-decoration:none;text-decoration-line:none;text-decoration-style:solid;text-decoration-color:#000000;letter-spacing:normal;word-spacing:normal;text-transform:none;writing-mode:lr-tb;direction:ltr;text-orientation:mixed;dominant-baseline:auto;baseline-shift:baseline;text-anchor:start;white-space:normal;shape-padding:0;clip-rule:nonzero;display:inline;overflow:visible;visibility:visible;opacity:1;isolation:auto;mix-blend-mode:normal;color-interpolation:sRGB;color-interpolation-filters:linearRGB;solid-color:#000000;solid-opacity:1;vector-effect:none;fill:#000000;fill-opacity:1;fill-rule:nonzero;stroke:none;stroke-width:0.03038421;stroke-linecap:butt;stroke-linejoin:miter;stroke-miterlimit:4;stroke-dasharray:none;stroke-dashoffset:0;stroke-opacity:1;color-rendering:auto;image-rendering:auto;shape-rendering:auto;text-rendering:auto;enable-background:accumulate"
       d="m 76.197237,16.130582 c -0.595175,2.11908 0.609221,4.37671 -0.303558,6.44604 -1.85149,1.14262 -4.062498,-0.0338 -6.067758,0.42588 -1.901532,0.0287 -3.803861,-0.0487 -5.699025,-0.20336 -1.795474,1.44186 -0.274556,4.73931 2.003324,3.55236 3.1951,-0.1406 6.393608,-0.0275 9.590185,-0.0719 -0.302707,1.5923 0.449537,4.66629 -1.979332,4.68903 -1.477412,0.14033 -4.260792,-0.94792 -4.066475,1.23886 -1.484922,0.0827 -2.055416,1.67172 -3.174057,2.27178 -0.907262,-0.52749 -0.232928,2.03876 -0.46546,2.70015 0.196139,1.2108 -0.376177,3.83029 0.323579,4.15756 0.594491,-1.43422 1.025088,1.49464 2.094936,1.45901 0.448513,0.24663 1.518021,1.00077 0.620482,1.39653 2.029827,0.0302 4.226331,0.66212 6.114047,-0.35295 1.822655,-1.07528 1.710857,0.86704 1.144684,2.00216 -0.278137,0.66514 0.260224,2.03457 0.324315,0.50425 0.658582,-1.75135 0.748716,1.22622 1.656547,1.49022 0.58113,0.73654 2.772462,1.98883 2.798902,1.93257 -1.62948,0.15787 -0.573907,0.90747 0.435888,0.53779 1.969207,-0.0442 3.941769,0.15239 5.908075,-0.022 0.552635,0.6695 2.815562,-0.48451 1.034927,-0.35259 -1.019348,-0.43136 1.694139,-0.77526 1.90068,-1.50951 1.253987,-1.04747 2.182913,-2.48955 2.577973,-4.07803 -0.181521,0.68959 0.120618,3.55138 0.407569,1.50926 -0.07637,-2.45776 0.110891,-4.91756 -0.02615,-7.37424 0.726139,-0.51284 -0.560714,-2.4971 -0.375838,-0.90749 -1.126829,-1.76824 -1.694708,-3.87632 -3.329758,-5.29244 -1.333656,-1.576 -3.024268,-0.3581 -4.04134,0.72102 -1.993606,0.41374 1.160321,1.19559 1.48822,2.11976 2.448311,2.54572 3.408291,6.7711 1.510283,9.89395 -1.887655,2.74015 -7.006409,2.48771 -8.055102,-0.88685 -0.596251,-2.20262 0.746387,-4.33825 0.524435,-6.56493 0.180497,-1.5907 -0.473538,-3.02801 -1.551856,-4.1384 -1.09254,-1.76692 -0.668593,-3.92191 -0.384825,-5.8367 0.772489,-2.01791 3.117872,-1.27386 4.750823,-1.2532 3.962803,0.0754 7.937156,-0.0571 11.887569,0.33434 1.398368,-0.61146 0.268016,-2.95608 -0.08263,-3.63299 -4.933023,0.19404 -9.870257,-0.16263 -14.80282,0.0586 -1.767729,-0.65593 -1.048522,-2.7913 -0.762938,-4.16303 1.002974,-2.45265 -1.827378,-3.05767 -3.63235,-2.69555 l -0.17936,-0.0373 -0.116632,-0.0676 z m 0.342227,0.69939 c 1.875034,-0.84216 4.079101,1.03026 2.970757,2.8952 -0.135629,1.7728 0.127555,4.47868 2.580244,3.71845 3.956268,0.0406 7.91333,0.0206 11.868748,0.12275 2.35471,-1.28225 2.747834,3.55887 0.169636,2.68869 -2.381041,-0.23512 -4.768281,-0.38906 -7.16058,-0.31466 -1.919276,-0.036 -3.839006,-0.0892 -5.758736,-0.0538 -1.715235,-0.89761 -3.004932,1.19768 -2.837174,2.72743 0.04264,1.99271 -0.689176,4.59885 1.528027,5.91151 1.387679,2.79407 0.206999,5.90822 -0.112937,8.79469 0.152858,1.81694 1.677815,3.6834 3.466921,4.04206 1.546058,-0.66425 3.519811,0.72119 4.634187,-0.88525 0.58539,-0.71367 1.322734,-2.295 1.98655,-1.3686 0.320218,-1.80104 0.0057,-3.69153 0.164345,-5.5239 0.02161,-0.45634 0.09577,-2.48953 -0.631,-1.44125 -0.99916,-1.55663 -1.385973,-3.7117 -3.201582,-4.54962 -0.09042,-0.64066 2.007819,0.0393 0.717553,-0.83273 1.111418,-1.60818 3.415289,0.74922 4.008189,2.12943 2.612721,3.55285 2.863389,8.95014 0.01879,12.45293 -2.956029,3.15966 -8.473873,3.51078 -11.800336,0.7513 -1.390008,-1.20692 -1.992918,-3.04818 -2.075489,-4.83593 -0.628782,-1.95082 -1.834487,0.87453 -3.195607,0.5321 -3.171269,0.64732 -6.902005,-1.42089 -7.312471,-4.79487 -0.673196,-3.29275 1.660017,-6.96935 5.031288,-7.50852 1.540541,-0.53399 4.707944,0.76154 4.262499,-2.03343 -0.118395,-1.06095 0.983977,-3.47582 -0.175607,-3.70961 -2.102503,0.3284 -4.23071,-0.0746 -6.340546,0.12418 -1.703695,-0.70157 -4.588463,1.31831 -5.448131,-0.97674 0.252719,-2.11663 3.091313,-1.48986 4.566401,-1.41782 2.393891,-0.0446 4.792614,-0.13372 7.183608,0.0405 1.593881,-1.11795 1.012636,-3.26436 0.884799,-4.89091 -0.100938,-0.60174 0.07097,-1.19788 0.008,-1.79361 z m 12.066531,9.25141 c 0.140122,0.0933 -0.171342,0.013 0,0 z m -13.337914,5.21614 -0.0057,0.0344 z m -1.229076,1.92127 c -2.111203,-0.37711 -3.483189,1.52999 -4.827989,2.66126 -0.261194,1.41432 0.346377,2.7267 -0.05977,3.83776 0.208592,1.08472 1.065182,0.23091 1.267349,1.33542 1.367492,1.16209 3.887402,1.54647 5.299304,0.27256 0.568563,-0.45917 1.714609,-2.25554 1.607361,-2.15805 -0.652443,0.78435 0.790684,1.52698 0.34979,0.30672 0.138129,-1.98851 0.499238,-4.14918 -1.146505,-5.56323 -0.530745,-1.10175 -1.75965,-0.44278 -2.489541,-0.69244 z m 16.521182,0.21858 0.02218,0.0298 z m -16.317428,0.3642 c 2.239556,-0.0719 3.57611,2.59639 2.962171,4.55096 -0.368786,3.3278 -5.682312,4.34646 -7.199932,1.33237 -1.309487,-2.61537 1.611057,-5.86531 4.237761,-5.88333 z m 6.548286,1.46168 0.0057,0.0313 z m -11.440934,0.4966 c 0.101626,0.0273 -0.09201,0.0467 0,0 z m 20.442936,1.96049 c 0.109012,0.0192 -0.08997,0.0604 0,0 z m -20.444356,2.42104 c 0.119648,0.007 -0.08502,0.0675 0,0 z m -3.083296,1.26872 c 0.125733,-0.008 -0.07466,0.0787 0,0 z m 23.527141,3.84535 c 0.127497,-0.0178 -0.06648,0.0857 0,0 z"
       id="path1150-7-9"
       inkscape:connector-curvature="0"
       inkscape:export-filename="C:\Users\Jerome\Desktop\sample chars.png"
       inkscape:export-xdpi="28.958078"
       inkscape:export-ydpi="28.958078" />
    <path
       style="fill:#000000;fill-opacity:1;stroke:none;stroke-width:0.21494846px;stroke-linecap:butt;stroke-linejoin:miter;stroke-opacity:1"
       d="m 122.98174,16.774832 c -0.40114,-0.54183 -1.30079,-0.91593 -2.67738,-0.27703 -1.89869,0.88118 -5.47286,1.61817 -9.53581,1.75343 -0.83829,0.0279 -2.72526,0.0353 -3.83031,-0.60723 -0.56737,-0.32985 -1.01679,-0.51085 -0.78778,0.18468 0.56503,1.71599 0.90441,3.60574 2.61709,4.18048 2.17001,0.72819 4.23207,-0.78146 6.30052,-1.01704 1.84625,-0.21027 -0.33228,2.11667 -2.53698,3.73785 -3.11053,2.2873 -10.87003,6.37775 -11.30894,10.46991 -0.21189,1.97575 1.77825,2.42435 3.54881,1.76488 3.00141,-1.11788 3.24361,-9.69069 13.1738,-10.09766 2.46253,-0.10092 4.44766,1.05357 5.37545,3.34651 0.88065,2.17657 0.62498,6.26077 -0.29986,7.78934 -0.58693,0.96998 -1.05984,0.97613 -1.43056,0.35438 -1.44989,-2.43173 -2.99941,-4.50167 -5.48901,-5.06252 -3.53835,-1.14869 -7.08768,1.38585 -6.58593,4.04413 0.34865,1.84699 -0.71926,5.26675 0.57709,6.38239 2.05888,1.77183 4.84362,0.89905 6.17102,0.52222 0.47735,-0.13552 0.73496,0.0212 0.56117,0.48473 -0.39807,1.06162 -1.85479,3.22758 -7.13868,4.51284 -0.72529,0.17642 1.69544,0.7545 5.46763,-0.0908 4.21013,-0.94339 5.7398,-3.4 6.94278,-5.51047 0.82924,-1.45482 2.3356,-1.18758 4.7126,-3.15173 1.82425,-1.50744 2.62888,-3.38258 2.62888,-5.82059 0,-3.84722 -3.64351,-7.35434 -7.02559,-8.6785 -2.28732,-0.89554 -4.01307,-1.01639 -5.56305,-1.05899 -0.7929,-0.0218 -1.07508,-0.32622 -0.67195,-0.80646 0.51005,-0.60758 2.42022,-1.96555 5.18467,-2.48933 2.56932,-0.48681 2.69386,-3.40939 1.62032,-4.85947 z m -8.55736,17.80412 c 2.16762,-0.008 3.16223,2.46931 3.45061,4.81942 0.0832,0.67795 -0.0962,1.12617 -0.68389,1.5659 -1.82988,1.36913 -5.21901,0.99609 -5.10181,-2.9951 0.15815,-1.81197 0.69765,-3.48634 2.33509,-3.39022 z"
       id="path292-5"
       inkscape:connector-curvature="0"
       sodipodi:nodetypes="sssssssssssssscsssssssssssssscsscc"
       inkscape:export-filename="C:\Users\Jerome\Desktop\sample chars.png"
       inkscape:export-xdpi="28.958078"
       inkscape:export-ydpi="28.958078" />
    <path
       inkscape:connector-curvature="0"
       style="display:inline;fill:#000000;fill-opacity:1;stroke:none;stroke-width:0.12187147px;stroke-linecap:butt;stroke-linejoin:miter;stroke-opacity:1"
       d="m 173.16524,37.559686 c -1.30862,0.150429 -1.56466,1.803607 -1.97634,2.810892 -0.17579,1.276079 -0.17582,2.822468 1.01558,3.633985 2.67906,1.852507 6.16032,1.603891 9.24115,1.268997 1.36224,-0.139693 3.63349,-0.381802 3.51021,-2.185167 -0.70414,-0.713546 -1.81107,-1.741809 -2.60574,-1.892774 -1.2103,1.025057 -2.91549,1.131671 -4.43441,1.246095 -1.46901,-0.0232 -3.08501,0.0048 -4.36644,-0.796533 -0.78152,-1.222237 0.8037,-3.358181 -0.38401,-4.085495 z"
       id="path3063" />
    <path
       inkscape:connector-curvature="0"
       style="display:inline;fill:#000000;fill-opacity:1;stroke:none;stroke-width:0.12187147px;stroke-linecap:butt;stroke-linejoin:miter;stroke-opacity:1"
       d="m 147.95494,41.765304 c -1.81935,0.472148 -2.29808,2.691363 -2.1552,4.326231 0.10921,1.904026 2.09697,2.830711 3.73681,3.144467 3.09449,0.643459 6.36224,0.402363 9.39515,-0.448337 1.60577,-0.624971 0.48269,-2.526973 -0.77168,-2.757775 -1.45825,-0.727889 -2.48188,0.819792 -3.92248,0.736838 -1.99615,0.308438 -4.1005,0.227793 -5.98753,-0.544347 -1.35844,-1.153229 -0.30042,-3.01734 -0.29507,-4.457077 z"
       id="path3061" />
    <path
       inkscape:connector-curvature="0"
       style="display:inline;fill:#000000;fill-opacity:1;stroke:none;stroke-width:0.12187147px;stroke-linecap:butt;stroke-linejoin:miter;stroke-opacity:1"
       d="m 180.0436,30.045128 c -2.14775,0.677169 -4.43977,0.701862 -6.65516,0.363058 -1.60404,-0.465654 -1.446,1.715306 -0.0141,1.759487 0.72442,0.670142 2.58484,0.721985 2.83916,1.10769 -0.94454,0.354373 -1.98198,2.140245 -0.32261,2.128641 1.74903,-0.998374 3.62016,-1.834406 5.61252,-2.212462 1.49906,-0.645822 0.82901,-2.158077 -0.36793,-2.752414 -0.32853,-0.203224 -0.69621,-0.391967 -1.09185,-0.394 z"
       id="path3059" />
    <path
       inkscape:connector-curvature="0"
       style="display:inline;fill:#000000;fill-opacity:1;stroke:none;stroke-width:0.12187147px;stroke-linecap:butt;stroke-linejoin:miter;stroke-opacity:1"
       d="m 154.76896,33.840174 c -2.41899,1.323179 -5.2516,-0.144001 -7.75115,0.748291 -0.084,1.004288 1.89022,1.374432 2.85987,1.642287 0.68638,0.103903 2.15778,0.626894 0.84404,1.083808 -1.18346,0.677191 -0.73594,2.361998 0.5273,1.157397 1.7585,-1.285419 4.33559,-0.990429 5.82476,-2.701731 -0.0678,-1.132483 -1.27473,-1.852144 -2.30482,-1.930052 z"
       id="path3057" />
    <path
       inkscape:connector-curvature="0"
       style="display:inline;fill:#000000;fill-opacity:1;stroke:none;stroke-width:0.12187147px;stroke-linecap:butt;stroke-linejoin:miter;stroke-opacity:1"
       d="m 177.32993,19.041074 c -1.1689,0.428641 -1.67458,1.915209 -1.72562,3.100365 -0.16717,1.825931 1.59152,3.061154 3.22025,3.295539 1.97985,0.200607 4.07943,0.174674 5.9668,-0.519243 1.28225,-0.695146 0.4113,-2.166588 -0.66764,-2.555051 -1.30717,-1.048011 -2.31423,0.508912 -3.75678,0.342103 -1.24421,0.244434 -3.06772,-0.403354 -2.46197,-1.975374 0.13368,-0.612905 0.38835,-1.645092 -0.57504,-1.688339 z"
       id="path3055" />
    <path
       inkscape:connector-curvature="0"
       style="display:inline;fill:#000000;fill-opacity:1;stroke:none;stroke-width:0.12187147px;stroke-linecap:butt;stroke-linejoin:miter;stroke-opacity:1"
       d="m 155.41589,20.81811 c -0.0974,-4.72e-4 -0.19303,0.0019 -0.28655,0.0068 -1.57122,0.06567 -3.23382,0.844245 -4.10668,2.174443 0.77156,0.553108 2.56538,-0.505257 3.69976,-0.107698 -0.3496,0.778648 -1.97087,1.528891 -2.8031,1.304327 -1.38802,1.344741 -2.29452,3.849853 -0.81919,5.45439 1.90274,1.58784 4.63263,1.410842 6.93197,1.010224 1.79082,0.381352 2.7592,-2.047286 0.87157,-2.620348 -1.23693,-0.609123 -2.45491,0.08836 -3.5928,0.506818 -1.57701,0.373791 -3.69657,-0.953721 -3.16298,-2.735358 0.37605,-1.643683 2.42288,-1.070271 3.66468,-1.202476 1.08393,-9.9e-4 2.93646,-0.119487 3.02678,-1.497064 -0.14013,-1.66289 -1.9633,-2.287122 -3.42346,-2.294081 z"
       id="path3053" />
    <path
       inkscape:connector-curvature="0"
       style="display:inline;fill:#000000;fill-opacity:1;stroke:none;stroke-width:0.12187147px;stroke-linecap:butt;stroke-linejoin:miter;stroke-opacity:1"
       d="m 150.04167,13.647113 c -1.18716,0.0042 0.0382,1.569116 0.51802,1.994381 0.31281,1.500317 -0.98284,3.24711 -2.59769,2.891059 -1.01285,-0.801884 -2.9906,-0.103951 -1.25096,0.962709 0.64568,0.930174 2.95604,0.509086 1.89838,1.899837 -0.97696,2.112015 -3.31157,3.649563 -3.31016,6.156384 0.17391,2.140834 2.37728,0.931532 2.75875,-0.427383 0.42586,-1.162132 1.01375,-2.212981 1.52923,-3.345246 0.47379,-1.083111 0.88144,-2.261934 1.77484,-3.082334 1.72321,-0.304303 3.87261,0.181406 5.17198,-1.272896 0.73547,-1.585572 -2.39796,-2.36836 -3.52507,-1.513633 -1.20201,0.819806 0.35264,-1.317378 0.13255,-1.979514 0.15008,-1.423409 -1.54123,-2.252513 -2.74413,-2.249005 -0.13717,-0.02372 -0.25514,-0.03475 -0.35574,-0.03437 z"
       id="path3051" />
    <path
       inkscape:connector-curvature="0"
       style="display:inline;fill:#000000;fill-opacity:1;stroke:none;stroke-width:0.12187147px;stroke-linecap:butt;stroke-linejoin:miter;stroke-opacity:1"
       d="m 175.53705,8.7163549 c -0.12978,0.00141 -0.25945,0.00472 -0.38815,0.00853 -1.14615,0.4494067 -0.12259,1.6372271 0.63961,1.7862921 -0.0368,0.957371 -0.14802,3.263976 -1.60574,2.766791 -0.96154,-0.195873 -3.48352,-1.025822 -2.62472,0.826992 0.64598,0.788181 2.05505,1.144907 2.55211,1.600863 -0.84805,1.820043 -2.03195,3.454511 -3.26605,5.026518 -0.24146,1.089 3.7e-4,3.238915 1.57211,2.924928 1.22131,-0.607479 1.49541,-2.431562 2.25827,-3.564785 0.6861,-1.415067 1.36085,-2.835759 2.03653,-4.25581 0.69841,0.151229 3.15063,-0.439397 1.47611,0.206868 -0.85273,0.370277 -2.44805,1.718827 -0.80725,2.16665 0.59829,-0.07595 2.01084,-0.456805 2.10378,-0.265106 -1.16139,0.09114 -1.80774,2.001822 -0.23537,1.829662 1.29276,-0.264445 2.65357,-0.539617 3.95853,-0.199314 1.56257,-0.473186 1.04449,-2.88599 -0.19833,-3.509231 -0.62196,-0.476099 -2.43883,-0.622128 -2.48171,-0.629625 1.56332,-0.01594 2.36643,-2.143088 0.56822,-2.658606 -1.01789,-0.864676 -2.07452,-0.374634 -3.03506,0.195665 0.83035,-1.056244 1.24754,-2.514398 -0.0473,-3.4390598 -0.65118,-0.735188 -1.56709,-0.8273789 -2.47562,-0.8182173 z"
       id="path3650" />
    <path
       style="fill:#000000;fill-opacity:1;stroke:none;stroke-width:0.19736294px;stroke-linecap:butt;stroke-linejoin:miter;stroke-opacity:1"
       d="m 153.08869,86.78199 c -4.62405,0.429795 -9.34803,0.272419 -13.99486,0.0448 0.0824,1.144749 -0.54039,3.020506 1.31719,2.142615 3.73385,-0.173647 7.4766,-0.02323 11.21357,-0.07593 -1.95689,6.927109 -7.51282,12.353395 -13.96126,15.029465 1.20006,0.67988 1.60564,2.22199 3.01536,0.69844 6.35549,-3.03958 11.04752,-8.726354 13.26157,-15.365608 0.91943,-1.149918 -0.12478,-1.522702 -0.85157,-2.473789 z"
       id="path1912-9"
       inkscape:connector-curvature="0" />
    <path
       style="fill:#000000;fill-opacity:1;stroke:none;stroke-width:0.19324371px;stroke-linecap:butt;stroke-linejoin:miter;stroke-opacity:1"
       d="m 141.81038,93.689163 c 4.28698,2.718172 8.24571,5.960773 11.80495,9.577677 3.37216,-1.58515 -0.23835,-3.500776 -1.47905,-4.559136 -2.8558,-2.43612 -5.86896,-4.706412 -9.09337,-6.635771 -0.41084,0.53908 -0.82169,1.078145 -1.23253,1.61723 z"
       id="path1914-3"
       inkscape:connector-curvature="0"
       sodipodi:nodetypes="ccscc" />
    <path
       style="fill:#000000;fill-opacity:1;stroke:none;stroke-width:0.19736294px;stroke-linecap:butt;stroke-linejoin:miter;stroke-opacity:1"
       d="m 163.47062,92.606031 c -1.97812,8.653809 -8.91473,15.833379 -16.97163,18.859019 1.10438,0.84327 1.54566,2.30333 3.01038,0.89514 8.19993,-3.65407 14.20944,-11.20499 16.69898,-19.535041 -0.70809,0.09555 -2.66525,-1.229317 -2.73773,-0.219118 z"
       id="path1916-4"
       inkscape:connector-curvature="0" />
    <path
       style="fill:#000000;fill-opacity:1;stroke:none;stroke-width:0.19175431px;stroke-linecap:butt;stroke-linejoin:miter;stroke-opacity:1"
       d="m 172.62156,85.879729 c -1.78174,-0.192627 -1.51716,5.24248 0.35315,5.427992 1.05095,0.104237 2.04739,0.123167 3.21103,0.312702 0.2699,0.04394 0.42614,0.302324 0.24229,0.458906 -0.89889,0.7656 -1.84246,1.847868 -1.15616,2.983531 0.74827,1.238187 2.13642,1.788313 3.32861,2.542509 0.41026,0.259543 0.62008,0.792358 0.22459,1.127408 -2.92415,2.477293 -5.99856,4.365673 -9.94623,5.635033 -2.15937,0.69434 3.18256,4.2312 5.1221,3.55329 3.00347,-1.04976 6.38272,-3.36426 9.01608,-5.80961 0.34196,-0.31755 0.91126,-0.28324 1.29013,0.0556 1.14904,1.02768 2.26151,2.09629 3.33159,3.20592 0.30461,0.31586 0.14026,0.80553 -0.31752,1.15355 -3.00572,2.28509 -6.61235,3.5333 -10.08368,5.01356 -1.80885,0.77134 3.17191,1.47543 4.10644,2.85698 1.04903,1.55082 2.68186,0.28207 3.87185,-0.25993 8.15778,-3.71561 13.35362,-10.81336 17.01804,-19.743136 0.84895,-2.068786 -0.27393,-2.478108 -1.53024,-2.744005 -1.32703,-0.280875 -3.75861,-1.629534 -3.93542,-0.214714 -0.1363,1.090559 -0.87025,3.313674 -1.92723,5.607109 -0.48014,1.041789 -1.26455,2.394208 -2.21061,3.615996 -0.52035,0.67201 -0.94161,0.77497 -1.24968,0.40571 -0.71351,-0.85526 -1.77514,-1.617452 -2.75609,-2.515576 -1.00745,-0.922382 -1.3464,-1.147413 -0.64182,-2.58794 0.96278,-1.9684 1.65422,-3.643184 2.28166,-5.161995 0.67263,-1.628196 0.34774,-3.032553 -0.72426,-3.996098 -1.17847,-1.059266 -2.71223,-0.632397 -4.09198,-0.597127 -4.27707,0.109331 -9.18314,0.0682 -12.82664,-0.325693 z m 9.54037,5.365818 c 1.77924,0 1.57938,1.454409 0.94889,2.238576 -0.14803,0.184105 -0.60689,0.230109 -0.88438,0.03228 -0.80237,-0.572068 -1.94871,-1.198924 -2.54737,-1.683412 -0.15142,-0.122549 0.12059,-0.391925 0.34839,-0.419679 0.70911,-0.0864 1.39398,-0.167769 2.13447,-0.167769 z"
       id="path1912-1"
       inkscape:connector-curvature="0"
       sodipodi:nodetypes="ssssssssssssssssssssssssssssssssss" />
    <path
       style="opacity:1;vector-effect:none;fill:#000000;fill-opacity:1;fill-rule:nonzero;stroke:none;stroke-width:4.00998306;stroke-linecap:butt;stroke-linejoin:miter;stroke-miterlimit:4;stroke-dasharray:none;stroke-dashoffset:0;stroke-opacity:1"
       d="m 65.787766,69.379198 c -1.978687,0.41636 -4.738821,0.298092 -5.511354,2.647038 -1.012294,2.373484 -0.586255,5.008539 -0.352381,7.490926 -3.489798,0.647032 -6.97097,1.351679 -10.411789,2.225694 -0.496167,2.272645 0.970851,5.010143 3.516573,4.959061 3.66681,0.383554 7.154079,-1.159974 10.763205,-1.50235 2.509903,-0.496559 4.920044,-1.379001 7.401762,-1.987591 0.02413,7.122425 -0.938748,14.550443 1.744983,21.349584 -0.745061,2.27203 1.225601,4.59678 3.494214,4.75753 2.009151,0.38413 4.707478,-0.58807 4.900527,-2.90202 -0.0035,-2.43313 -2.030369,-4.26054 -2.331687,-6.656496 -1.617789,-6.027869 -0.634172,-12.302596 -0.175658,-18.413925 -0.611149,-2.636184 -3.424971,-4.916385 -6.184647,-4.111081 -1.774436,-0.142595 -4.848107,1.976128 -5.73185,-0.03112 -0.495142,-2.436612 1.05476,-5.036212 -0.09992,-7.357894 C 66.581561,69.521589 65.787765,69.3792 65.787765,69.3792 Z"
       id="path1371"
       inkscape:connector-curvature="0"
       sodipodi:nodetypes="cccccccccccccccc" />
    <path
       style="fill:#000000;fill-opacity:1;stroke:none;stroke-width:0.20360138px;stroke-linecap:butt;stroke-linejoin:miter;stroke-opacity:1"
       d="m 96.831792,89.86367 c 0.857388,0.592561 1.723464,1.188833 2.410192,1.982935 1.341796,1.390747 2.389726,3.054107 3.120356,4.840464 1.15203,-0.681272 2.30407,-1.36255 3.4561,-2.043817 -1.46511,-2.925545 -3.48251,-5.694313 -6.319056,-7.415182 z"
       id="path1414-3"
       inkscape:connector-curvature="0"
       sodipodi:nodetypes="cccccc" />
    <path
       style="fill:#000000;fill-opacity:1;stroke:none;stroke-width:0.18301152px;stroke-linecap:butt;stroke-linejoin:miter;stroke-opacity:1"
       d="m 109.15781,87.591855 c -0.43632,5.166745 -3.70173,9.933446 -8.25245,12.373091 -1.325837,0.814994 -2.714331,1.520174 -4.085177,2.254784 2.064769,0.30495 3.504607,1.19011 3.907837,2.07972 1.14794,-0.53389 2.68143,-1.38055 3.74287,-2.0677 3.44286,-2.326485 6.34413,-5.611657 7.68376,-9.590655 0.46527,-1.2542 0.96779,-2.522468 1.20932,-3.833423 z"
       id="path1416-5"
       inkscape:connector-curvature="0"
       sodipodi:nodetypes="cccccccc" />
    <path
       style="fill:#000000;fill-opacity:1;stroke:none;stroke-width:0.18301152px;stroke-linecap:butt;stroke-linejoin:miter;stroke-opacity:1"
       d="m 120.81895,92.340551 c -1.04625,0.433932 -3.17733,0.489757 -4.65302,0.489757 -2.23961,0.02263 -4.47937,0.0051 -6.71906,0.01121 -0.61523,1.256472 -1.23045,2.512945 -1.84567,3.769418 3.56879,0.01171 7.13762,-0.0061 10.70639,0.01232 -2.11306,5.970354 -7.05891,10.788424 -12.97807,12.973474 -2.28982,0.94614 -4.67501,1.63817 -7.0751,2.24149 1.608301,0.81749 2.85489,2.27173 2.98761,3.07047 6.63625,-1.49616 11.83359,-4.38739 15.8483,-8.71769 2.2529,-2.41119 3.913,-5.28937 5.2117,-8.309572 0.29844,-0.694053 0.82105,-2.487032 1.48819,-3.378634 z"
       id="path1418-8"
       inkscape:connector-curvature="0"
       sodipodi:nodetypes="cccccccccsccc" />
    <path
       style="fill:#000000;fill-opacity:1;stroke:none;stroke-width:0.29832643px;stroke-linecap:butt;stroke-linejoin:miter;stroke-opacity:1"
       d="m 105.04489,101.53246 c 2.87106,1.60797 5.39049,3.96734 6.86313,6.93839 1.21672,-0.76734 2.43343,-1.53471 3.65014,-2.30205 -1.87495,-3.02903 -4.50953,-5.62169 -7.71132,-7.221545 -0.93398,0.861732 -1.86797,1.723475 -2.80195,2.585205 z"
       id="path1420-3"
       inkscape:connector-curvature="0" />
    <path
       style="fill:#000000;stroke-width:0px"
       d="m 114.75282,65.6711 c -0.60117,0.420091 -1.28226,0.723596 -1.99355,0.901406 -2.29327,0.621808 -4.67814,0.861184 -7.05063,0.831932 -0.51584,-0.003 -1.03082,-0.04183 -1.54669,-0.04329 -0.15465,0.01257 -0.29411,0.121066 -0.35101,0.264429 -0.0565,0.132851 -0.0463,0.29242 0.0299,0.415526 0.0723,0.137019 0.16237,0.264239 0.22487,0.40633 0.10066,0.199988 0.18878,0.414445 0.19639,0.6401 -10e-4,0.139854 -0.0434,0.282459 -0.009,0.421861 0.0601,0.177845 0.25537,0.297312 0.44106,0.271664 2.67756,0.04611 5.37141,-0.136059 7.98867,-0.724803 1.21481,-0.275053 2.39362,-0.68252 3.58998,-1.024554 -0.505,-0.787973 -1.01,-1.575941 -1.51499,-2.36391 l -0.003,0.0015 z"
       id="path1350-8"
       inkscape:connector-curvature="0" />
    <path
       style="fill:#000000;stroke-width:0px"
       d="m 108.72456,67.804634 c 0,1.158158 0,2.316342 0,3.474515 -1.41871,-0.002 -2.84051,0.03193 -4.25572,-0.08796 -0.10962,-0.0075 -0.21777,-0.02303 -0.32747,-0.02916 -0.10346,-0.0045 -0.21109,0.0015 -0.30684,0.0446 -0.20875,0.100661 -0.3387,0.342426 -0.30615,0.572087 0.001,0.68788 0.002,1.375764 0.002,2.063648 1.09076,-0.143444 2.1936,-0.140111 3.29198,-0.145184 2.38199,-0.0035 4.764,-0.0015 7.14599,-0.0025 -0.65392,1.581514 -1.84123,2.931901 -3.31499,3.799616 -1.21891,0.735955 -2.59318,1.188657 -3.99254,1.426022 -0.37104,0.06331 -0.74476,0.109874 -1.11676,0.166803 -0.254,0.082 -0.41309,0.380562 -0.33813,0.636998 0.0401,0.139286 0.14159,0.249521 0.24534,0.345946 0.16381,0.16073 0.31962,0.339218 0.40161,0.556602 0.0416,0.136631 0.0222,0.287511 0.0863,0.418346 0.11378,0.238209 0.3992,0.374549 0.65659,0.32311 0.47971,-0.07223 0.9607,-0.1397 1.43473,-0.244223 1.55267,-0.328182 3.06906,-0.886304 4.40749,-1.747693 1.12516,-0.724985 2.11434,-1.667645 2.86464,-2.777952 0.6089,-0.896942 1.06802,-1.89153 1.38729,-2.926421 0.0748,-0.231156 0.13913,-0.46774 0.25003,-0.684952 0.0594,-0.105017 0.14738,-0.197489 0.17386,-0.318485 0.0381,-0.172007 -0.0309,-0.358273 -0.15939,-0.475819 -0.0386,-0.03514 -0.0826,-0.06343 -0.12039,-0.09954 -0.40267,-0.348138 -0.80001,-0.702455 -1.20175,-1.051689 -0.15827,0.133022 -0.36395,0.200344 -0.56787,0.220084 -0.12573,0.01102 -0.25277,0.008 -0.37924,0.01182 -1.13167,0.0186 -2.26349,-0.0025 -3.39521,0.007 0.002,-1.135125 2.7e-4,-2.270251 10e-4,-3.405377 -0.85548,-0.02559 -1.71096,-0.05118 -2.56643,-0.07675 0,0.002 0,0.0045 0,0.0064 z"
       id="path1348-8"
       inkscape:connector-curvature="0" />
    <path
       style="fill:#000000;stroke-width:0px"
       d="m 133.66841,65.722384 c -0.57774,0.307105 -1.20017,0.521507 -1.83206,0.686154 -0.93385,0.246651 -1.88091,0.443697 -2.83616,0.58698 -2.0241,0.306181 -4.07815,0.39185 -6.12256,0.311239 -0.006,10e-4 -0.019,-0.003 -0.0211,10e-4 0.12532,0.25927 0.22523,0.53455 0.2592,0.821851 0.004,0.03268 0.007,0.06541 0.008,0.09823 2.38095,0.0273 4.76855,-0.126375 7.11444,-0.543128 1.16167,-0.207278 2.30655,-0.502784 3.43039,-0.861717 0.19888,-0.06084 0.39772,-0.121769 0.5967,-0.182234 -0.1969,-0.307166 -0.39381,-0.614327 -0.59073,-0.921493 -0.002,10e-4 -0.005,0.002 -0.006,0.003 z"
       id="path1350-7"
       inkscape:connector-curvature="0" />
    <path
       style="fill:#000000;stroke-width:0px"
       d="m 128.10256,71.414856 c 0.007,0.123136 -0.10071,0.239828 -0.22407,0.242407 -0.18025,-0.0011 -0.36051,-0.0015 -0.54077,-0.0015 -0.90372,-0.0015 -1.80747,0.0053 -2.71117,-0.0035 -0.49928,-0.0052 -0.99862,-0.01745 -1.49711,-0.04681 -0.27363,-0.01554 -0.54704,-0.03494 -0.82008,-0.0586 0.001,0.370165 2.7e-4,0.740329 2.7e-4,1.110494 0.82327,-0.05286 1.6485,-0.0624 2.47319,-0.06917 1.17844,-0.0055 2.35689,0.0035 3.53533,-0.0011 1.99174,2.4e-5 3.9835,2.9e-5 5.97525,4.6e-5 -0.47217,1.787587 -1.47235,3.43314 -2.84724,4.670029 -0.83686,0.758309 -1.79988,1.373049 -2.82806,1.837903 -1.29782,0.589826 -2.68959,0.956858 -4.09929,1.153628 -0.016,0.002 -0.0319,0.0045 -0.0479,0.0065 0.16968,0.206222 0.31479,0.437171 0.39639,0.692897 0.0177,0.05674 0.0314,0.114741 0.0414,0.17335 1.58278,-0.21043 3.14739,-0.619546 4.5972,-1.296087 1.37531,-0.642799 2.6336,-1.553865 3.62533,-2.70718 0.79819,-0.927563 1.42346,-2.000238 1.85469,-3.144811 0.15591,-0.411638 0.28536,-0.832716 0.42111,-1.251358 0.0545,-0.154678 0.11588,-0.307232 0.18986,-0.453728 -0.27095,-0.23745 -0.54191,-0.474901 -0.81286,-0.712346 -0.26605,0.07259 -0.54324,0.08692 -0.81753,0.09536 -0.59361,0.01277 -1.18736,-0.002 -1.78102,0.0045 -0.99386,0 -1.98773,0 -2.9816,0 0,-1.274458 0,-2.548916 0,-3.823373 -0.36716,-0.01096 -0.73431,-0.02197 -1.10147,-0.03293 0,1.205078 0,2.410161 0,3.615244 z"
       id="path1348-0"
       inkscape:connector-curvature="0" />
    <path
       style="opacity:1;vector-effect:none;fill:#000000;fill-opacity:1;fill-rule:nonzero;stroke:none;stroke-width:3.69793344;stroke-linecap:butt;stroke-linejoin:miter;stroke-miterlimit:4;stroke-dasharray:none;stroke-dashoffset:0;stroke-opacity:1"
       d="m 26.482185,72.222126 c -4.772629,-2.262513 -4.116842,2.485725 -4.897616,4.627897 -1.342851,2.986096 -2.976879,7.701616 -6.11656,7.526919 -2.400926,-0.776128 -5.4928169,2.688452 -3.147304,4.553686 2.096917,1.320583 4.601114,0.143625 6.845895,-0.04228 2.905609,-0.447101 5.822451,-0.826995 8.713068,-1.366824 1.957615,1.462227 1.024468,4.100089 1.509801,6.13718 1.259957,5.38604 4.654891,10.065766 8.876644,13.549736 1.353892,1.58985 3.486048,3.47029 5.709213,2.47234 2.188404,0.0752 4.149448,-3.10686 1.236518,-3.72698 -4.182938,-2.98167 -7.97593,-6.858657 -9.876148,-11.704722 -0.83964,-2.660422 -0.83698,-5.475787 -1.061614,-8.230255 1.305831,-2.182551 -1.306952,-5.45482 -3.707495,-4.322762 -1.558968,0.584622 -3.037063,1.758703 -5.039451,1.37437 -2.4957,0.0804 0.225876,-2.216241 2.200867,-7.106913 0.678563,-1.550159 0.584296,-2.874453 -1.245818,-3.741342 z m -0.406331,15.78174 c -0.188569,0.0082 -0.09602,0.0051 0,0 z m -0.0268,2.725206 c -1.824393,0.496369 -5.41858,-0.01765 -4.970288,2.913232 -0.07835,2.877685 -2.17877,5.028822 -4.240165,6.770156 -3.16129,2.76854 -4.887047,3.98265 -7.2677801,7.52355 2.3324561,1.06267 4.4851211,-1.09206 6.8217911,-0.95044 4.327176,-2.0966 5.735133,-4.62123 8.572495,-8.408731 1.415568,-2.276265 2.506193,-5.311276 1.083947,-7.847767 z"
       id="path4244"
       inkscape:connector-curvature="0"
       sodipodi:nodetypes="cccccccccccccccccccccccccc" />
    <path
       style="fill:#000000;fill-opacity:1;stroke:none;stroke-width:0.15436722px;stroke-linecap:butt;stroke-linejoin:miter;stroke-opacity:1"
       d="m 151.55709,57.270929 c -0.0367,0.539769 -0.14575,1.088719 -0.32939,1.581432 -0.96845,2.598243 -3.1368,4.346956 -5.5552,5.6976 1.61084,0.186895 2.59483,0.708121 3.21154,1.425232 2.1665,-2.125087 3.71103,-4.373895 4.44485,-7.747259 0.6812,-0.101317 0.62126,-0.513545 0.11643,-0.642509 -0.68729,-0.175577 -1.49067,-0.296602 -1.88823,-0.314496 z"
       id="path4340-4"
       inkscape:connector-curvature="0"
       sodipodi:nodetypes="cscccsc" />
    <path
       style="fill:#000000;fill-opacity:1;stroke:none;stroke-width:0.14081591px;stroke-linecap:butt;stroke-linejoin:miter;stroke-opacity:1"
       d="m 159.463,63.992851 h -9.08265 l 0.95481,-1.773018 h 7.95949 c 0.49724,0 0.93148,-0.08297 1.23417,-0.243322 0.41229,0.275163 0.86599,0.689045 1.14651,0.998237 0.5651,0.62287 0.44609,0.983512 -0.27116,1.022226 -0.26635,4.493201 1.82038,9.079649 6.05054,10.550519 -1.87668,1.014493 -2.26902,1.791888 -2.51197,2.358444 -3.11185,-2.379551 -5.13019,-6.070088 -5.47974,-12.913086 z"
       id="path4342-3"
       inkscape:connector-curvature="0"
       sodipodi:nodetypes="cccccscccc" />
    <path
       style="fill:#000000;fill-opacity:1;stroke:none;stroke-width:0.14081591px;stroke-linecap:butt;stroke-linejoin:miter;stroke-opacity:1"
       d="m 153.9351,66.20125 c 0.0397,0.395289 -0.0343,0.84864 -0.14463,1.254286 -1.02784,3.779685 -3.4753,6.639123 -7.13734,8.448132 2.47864,-0.04128 3.18312,0.564219 3.75297,1.019872 2.30282,-1.947082 4.41997,-4.702003 5.40002,-9.486502 0.8267,-0.06184 0.84531,-0.670261 0.16647,-0.898666 -0.63671,-0.214231 -1.32488,-0.305009 -2.03749,-0.337122 z"
       id="path4344-1"
       inkscape:connector-curvature="0"
       sodipodi:nodetypes="cscccsc" />
    <path
       style="fill:#000000;fill-opacity:1;stroke:none;stroke-width:0.15436722px;stroke-linecap:butt;stroke-linejoin:miter;stroke-opacity:1"
       d="m 176.85074,56.281203 c -0.37084,0.01498 -0.66339,0.40277 -0.59999,0.763463 -0.0698,1.320522 -0.67314,2.571881 -1.51096,3.580487 -1.09874,1.337285 -2.54352,2.341903 -4.05413,3.163502 -0.86177,0.47658 -1.73475,0.933756 -2.59152,1.419793 1.45863,0.25836 2.97215,0.133132 4.39778,0.577412 0.7651,0.23752 1.4504,0.794877 1.76104,1.543955 0.008,0.05623 0.0665,0.0905 0.1174,0.06074 0.21124,-0.06027 0.32973,-0.263283 0.49744,-0.389301 1.73794,-1.625687 3.25631,-3.539183 4.17754,-5.748451 0.30848,-0.739611 0.55241,-1.504657 0.75859,-2.278563 0.50112,-0.274903 0.78573,-0.933032 0.56598,-1.475149 -0.19535,-0.512981 -0.71804,-0.847493 -1.25191,-0.904378 -0.74202,-0.183727 -1.50386,-0.282595 -2.26726,-0.313511 z"
       id="path4340-4-7"
       inkscape:connector-curvature="0" />
    <path
       style="fill:#000000;fill-opacity:1;stroke:none;stroke-width:0.14081591px;stroke-linecap:butt;stroke-linejoin:miter;stroke-opacity:1"
       d="m 186.18658,60.990225 c -0.44522,0.09705 -0.88186,0.309825 -1.34588,0.251558 -2.81361,0.0075 -5.62724,0.002 -8.44087,0.0054 -0.66753,1.239413 -1.33502,2.478861 -2.00253,3.718294 h 9.79955 c 0.19798,2.681324 0.71179,5.374959 1.84933,7.826148 1.0462,2.230546 2.7407,4.133927 4.7775,5.509811 0.18603,0.139919 0.37207,0.279809 0.55808,0.419753 -0.0587,-0.780446 0.36476,-1.920795 0.84922,-2.442761 0.5416,-0.583516 2.33378,-1.697596 3.70178,-2.131348 -2.51318,-0.306611 -4.83774,-1.335727 -6.19164,-3.380288 -1.1532,-1.727375 -1.72842,-3.809399 -1.73848,-5.878095 0.0123,-0.05976 -0.0335,-0.152811 0.0396,-0.178578 0.55353,-0.341396 0.77681,-1.129606 0.4661,-1.704876 -0.2578,-0.565135 -0.74619,-0.97332 -1.19584,-1.38237 -0.31545,-0.263686 -0.65444,-0.533539 -1.06228,-0.630391 -0.0212,-0.0015 -0.0424,-0.003 -0.0636,-0.0025 z"
       id="path4342-3-6"
       inkscape:connector-curvature="0"
       sodipodi:nodetypes="ccccccccsccccccccc" />
    <path
       style="fill:#000000;fill-opacity:1;stroke:none;stroke-width:0.14081591px;stroke-linecap:butt;stroke-linejoin:miter;stroke-opacity:1"
       d="m 178.90953,65.204461 c -0.27513,0.08812 -0.42617,0.427391 -0.32132,0.69357 0.10918,0.788758 -0.13047,1.57198 -0.39884,2.305899 -1.00073,2.773312 -4.15228,6.057327 -6.75392,7.434906 -0.37353,0.206282 -0.7797,0.384399 -1.07744,0.699137 2.35795,-0.110079 4.71532,1.590984 5.13908,2.389199 0.33419,-0.0035 0.61154,-0.227525 0.83859,-0.450549 2.58586,-2.213106 4.67228,-6.109627 5.48899,-9.405478 0.0607,-0.235193 0.11799,-0.470737 0.18156,-0.704828 0.52936,-0.247883 0.88961,-0.865005 0.7641,-1.448919 -0.12054,-0.603557 -0.65285,-1.071418 -1.24521,-1.191925 -0.92888,-0.305914 -1.64041,-0.2845 -2.60907,-0.324522 z"
       id="path4344-1-9"
       inkscape:connector-curvature="0"
       sodipodi:nodetypes="ccccccccccccc" />
  </g>
</svg>
